<svg xmlns="http://www.w3.org/2000/svg" xmlns:xlink="http://www.w3.org/1999/xlink" width="1000" zoomAndPan="magnify" viewBox="0 0 750 749.999995" height="1000" preserveAspectRatio="xMidYMid meet" version="1.0"><defs><clipPath id="cb7512f693"><path d="M 20.988281 325 L 557 325 L 557 347 L 20.988281 347 Z M 20.988281 325 " clip-rule="nonzero"/></clipPath><clipPath id="e87b1f6540"><path d="M 556 325 L 749.929688 325 L 749.929688 347 L 556 347 Z M 556 325 " clip-rule="nonzero"/></clipPath><clipPath id="f7f3f1f2dc"><path d="M 20.988281 703 L 215 703 L 215 723 L 20.988281 723 Z M 20.988281 703 " clip-rule="nonzero"/></clipPath><clipPath id="21d665a2d3"><path d="M 20.988281 346 L 40 346 L 40 723 L 20.988281 723 Z M 20.988281 346 " clip-rule="nonzero"/></clipPath><clipPath id="2b07be8471"><path d="M 731 346 L 749.929688 346 L 749.929688 716 L 731 716 Z M 731 346 " clip-rule="nonzero"/></clipPath><clipPath id="bd4e46a930"><path d="M 556 703 L 749.929688 703 L 749.929688 723 L 556 723 Z M 556 703 " clip-rule="nonzero"/></clipPath></defs><path fill="#b1d6e5" d="M 438.632812 271.300781 L 735.714844 271.300781 L 735.714844 56.386719 L 438.632812 56.386719 L 438.632812 271.300781 " fill-opacity="1" fill-rule="nonzero"/><path fill="#15151c" d="M 438.632812 253.46875 L 735.714844 253.46875 L 735.714844 64.191406 L 438.632812 64.191406 L 438.632812 253.46875 " fill-opacity="1" fill-rule="nonzero"/><path fill="#15151e" d="M 447.34375 247.503906 L 727.003906 247.503906 L 727.003906 82.320312 L 447.34375 82.320312 L 447.34375 247.503906 " fill-opacity="1" fill-rule="nonzero"/><path fill="#ffffff" d="M 712.792969 82.320312 L 712.792969 247.503906 L 710.523438 247.503906 L 710.523438 82.320312 " fill-opacity="1" fill-rule="nonzero"/><path fill="#323660" d="M 447.34375 82.257812 L 727.003906 82.257812 L 727.003906 68.632812 L 447.34375 68.632812 L 447.34375 82.257812 " fill-opacity="1" fill-rule="nonzero"/><path fill="#ed3947" d="M 479.714844 75.449219 C 479.714844 77.996094 481.789062 80.074219 484.339844 80.074219 C 486.902344 80.074219 488.96875 77.996094 488.96875 75.449219 C 488.96875 72.890625 486.902344 70.820312 484.339844 70.820312 C 481.789062 70.820312 479.714844 72.890625 479.714844 75.449219 " fill-opacity="1" fill-rule="nonzero"/><path fill="#80cc28" d="M 467.535156 75.449219 C 467.535156 77.996094 469.601562 80.074219 472.15625 80.074219 C 474.714844 80.074219 476.78125 77.996094 476.78125 75.449219 C 476.78125 72.890625 474.714844 70.820312 472.15625 70.820312 C 469.601562 70.820312 467.535156 72.890625 467.535156 75.449219 " fill-opacity="1" fill-rule="nonzero"/><path fill="#ebb72e" d="M 455.457031 75.449219 C 455.457031 77.996094 457.53125 80.074219 460.085938 80.074219 C 462.640625 80.074219 464.710938 77.996094 464.710938 75.449219 C 464.710938 72.890625 462.640625 70.820312 460.085938 70.820312 C 457.53125 70.820312 455.457031 72.890625 455.457031 75.449219 " fill-opacity="1" fill-rule="nonzero"/><path fill="#ffffff" d="M 715.269531 88.644531 L 723.390625 88.644531 L 723.390625 86.164062 L 715.269531 86.164062 L 715.269531 88.644531 " fill-opacity="1" fill-rule="nonzero"/><path fill="#ffffff" d="M 715.269531 96.765625 L 723.390625 96.765625 L 723.390625 94.285156 L 715.269531 94.285156 L 715.269531 96.765625 " fill-opacity="1" fill-rule="nonzero"/><path fill="#ffffff" d="M 715.269531 104.886719 L 723.390625 104.886719 L 723.390625 102.40625 L 715.269531 102.40625 L 715.269531 104.886719 " fill-opacity="1" fill-rule="nonzero"/><path fill="#ffffff" d="M 715.269531 113.015625 L 723.390625 113.015625 L 723.390625 110.535156 L 715.269531 110.535156 L 715.269531 113.015625 " fill-opacity="1" fill-rule="nonzero"/><path fill="#ffffff" d="M 715.269531 121.136719 L 723.390625 121.136719 L 723.390625 118.65625 L 715.269531 118.65625 L 715.269531 121.136719 " fill-opacity="1" fill-rule="nonzero"/><path fill="#ffffff" d="M 715.269531 129.261719 L 723.390625 129.261719 L 723.390625 126.777344 L 715.269531 126.777344 L 715.269531 129.261719 " fill-opacity="1" fill-rule="nonzero"/><path fill="#ffffff" d="M 715.269531 137.382812 L 723.390625 137.382812 L 723.390625 134.902344 L 715.269531 134.902344 L 715.269531 137.382812 " fill-opacity="1" fill-rule="nonzero"/><path fill="#ffffff" d="M 715.269531 145.511719 L 723.390625 145.511719 L 723.390625 143.03125 L 715.269531 143.03125 L 715.269531 145.511719 " fill-opacity="1" fill-rule="nonzero"/><path fill="#ffffff" d="M 715.269531 153.632812 L 723.390625 153.632812 L 723.390625 151.152344 L 715.269531 151.152344 L 715.269531 153.632812 " fill-opacity="1" fill-rule="nonzero"/><path fill="#ffffff" d="M 715.269531 161.757812 L 723.390625 161.757812 L 723.390625 159.277344 L 715.269531 159.277344 L 715.269531 161.757812 " fill-opacity="1" fill-rule="nonzero"/><path fill="#ffffff" d="M 715.269531 169.878906 L 723.390625 169.878906 L 723.390625 167.398438 L 715.269531 167.398438 L 715.269531 169.878906 " fill-opacity="1" fill-rule="nonzero"/><path fill="#ffffff" d="M 715.269531 178.003906 L 723.390625 178.003906 L 723.390625 175.523438 L 715.269531 175.523438 L 715.269531 178.003906 " fill-opacity="1" fill-rule="nonzero"/><path fill="#ffffff" d="M 715.269531 186.128906 L 723.390625 186.128906 L 723.390625 183.648438 L 715.269531 183.648438 L 715.269531 186.128906 " fill-opacity="1" fill-rule="nonzero"/><path fill="#ffffff" d="M 715.269531 194.25 L 723.390625 194.25 L 723.390625 191.773438 L 715.269531 191.773438 L 715.269531 194.25 " fill-opacity="1" fill-rule="nonzero"/><path fill="#ffffff" d="M 715.269531 202.378906 L 723.390625 202.378906 L 723.390625 199.890625 L 715.269531 199.890625 L 715.269531 202.378906 " fill-opacity="1" fill-rule="nonzero"/><path fill="#ffffff" d="M 715.269531 210.503906 L 723.390625 210.503906 L 723.390625 208.019531 L 715.269531 208.019531 L 715.269531 210.503906 " fill-opacity="1" fill-rule="nonzero"/><path fill="#ffffff" d="M 715.269531 218.625 L 723.390625 218.625 L 723.390625 216.140625 L 715.269531 216.140625 L 715.269531 218.625 " fill-opacity="1" fill-rule="nonzero"/><path fill="#ffffff" d="M 715.269531 226.746094 L 723.390625 226.746094 L 723.390625 224.261719 L 715.269531 224.261719 L 715.269531 226.746094 " fill-opacity="1" fill-rule="nonzero"/><path fill="#ffffff" d="M 715.269531 234.875 L 723.390625 234.875 L 723.390625 232.390625 L 715.269531 232.390625 L 715.269531 234.875 " fill-opacity="1" fill-rule="nonzero"/><path fill="#ffffff" d="M 715.269531 242.996094 L 723.390625 242.996094 L 723.390625 240.511719 L 715.269531 240.511719 L 715.269531 242.996094 " fill-opacity="1" fill-rule="nonzero"/><path fill="#ed3947" d="M 675.101562 88.644531 L 706.695312 88.644531 L 706.695312 86.164062 L 675.101562 86.164062 L 675.101562 88.644531 " fill-opacity="1" fill-rule="nonzero"/><path fill="#ed3947" d="M 642.257812 179.246094 L 673.847656 179.246094 L 673.847656 176.761719 L 642.257812 176.761719 L 642.257812 179.246094 " fill-opacity="1" fill-rule="nonzero"/><path fill="#ed3947" d="M 661.890625 169.878906 L 673.847656 169.878906 L 673.847656 167.398438 L 661.890625 167.398438 L 661.890625 169.878906 " fill-opacity="1" fill-rule="nonzero"/><path fill="#3bbec5" d="M 694.734375 96.765625 L 706.695312 96.765625 L 706.695312 94.285156 L 694.734375 94.285156 L 694.734375 96.765625 " fill-opacity="1" fill-rule="nonzero"/><path fill="#3bbec5" d="M 688.980469 104.886719 L 706.695312 104.886719 L 706.695312 102.40625 L 688.980469 102.40625 L 688.980469 104.886719 " fill-opacity="1" fill-rule="nonzero"/><path fill="#00adef" d="M 679.839844 104.886719 L 685.9375 104.886719 L 685.9375 102.40625 L 679.839844 102.40625 L 679.839844 104.886719 " fill-opacity="1" fill-rule="nonzero"/><path fill="#3bbec5" d="M 661.660156 186.128906 L 673.621094 186.128906 L 673.621094 183.648438 L 661.660156 183.648438 L 661.660156 186.128906 " fill-opacity="1" fill-rule="nonzero"/><path fill="#3bbec5" d="M 655.90625 194.25 L 673.621094 194.25 L 673.621094 191.773438 L 655.90625 191.773438 L 655.90625 194.25 " fill-opacity="1" fill-rule="nonzero"/><path fill="#00adef" d="M 646.765625 194.25 L 652.859375 194.25 L 652.859375 191.773438 L 646.765625 191.773438 L 646.765625 194.25 " fill-opacity="1" fill-rule="nonzero"/><path fill="#3bbec5" d="M 661.660156 229.570312 L 673.621094 229.570312 L 673.621094 227.085938 L 661.660156 227.085938 L 661.660156 229.570312 " fill-opacity="1" fill-rule="nonzero"/><path fill="#3bbec5" d="M 655.90625 237.6875 L 673.621094 237.6875 L 673.621094 235.207031 L 655.90625 235.207031 L 655.90625 237.6875 " fill-opacity="1" fill-rule="nonzero"/><path fill="#00adef" d="M 646.765625 237.6875 L 652.859375 237.6875 L 652.859375 235.207031 L 646.765625 235.207031 L 646.765625 237.6875 " fill-opacity="1" fill-rule="nonzero"/><path fill="#3bbec5" d="M 688.980469 145.511719 L 706.695312 145.511719 L 706.695312 143.03125 L 688.980469 143.03125 L 688.980469 145.511719 " fill-opacity="1" fill-rule="nonzero"/><path fill="#00adef" d="M 679.839844 145.511719 L 685.9375 145.511719 L 685.9375 143.03125 L 679.839844 143.03125 L 679.839844 145.511719 " fill-opacity="1" fill-rule="nonzero"/><path fill="#80cc28" d="M 662.464844 88.644531 L 670.589844 88.644531 L 670.589844 86.164062 L 662.464844 86.164062 L 662.464844 88.644531 " fill-opacity="1" fill-rule="nonzero"/><path fill="#80cc28" d="M 651.410156 156.117188 L 685.9375 156.117188 L 685.9375 153.632812 L 651.410156 153.632812 L 651.410156 156.117188 " fill-opacity="1" fill-rule="nonzero"/><path fill="#ffffff" d="M 650.394531 113.015625 L 685.9375 113.015625 L 685.9375 110.535156 L 650.394531 110.535156 L 650.394531 113.015625 " fill-opacity="1" fill-rule="nonzero"/><path fill="#ffffff" d="M 581 113.015625 L 632.453125 113.015625 L 632.453125 110.535156 L 581 110.535156 L 581 113.015625 " fill-opacity="1" fill-rule="nonzero"/><path fill="#ffffff" d="M 637.871094 113.015625 L 647.007812 113.015625 L 647.007812 110.535156 L 637.871094 110.535156 L 637.871094 113.015625 " fill-opacity="1" fill-rule="nonzero"/><path fill="#ffffff" d="M 642.605469 128.019531 L 678.148438 128.019531 L 678.148438 125.535156 L 642.605469 125.535156 L 642.605469 128.019531 " fill-opacity="1" fill-rule="nonzero"/><path fill="#ffffff" d="M 573.214844 128.019531 L 624.667969 128.019531 L 624.667969 125.535156 L 573.214844 125.535156 L 573.214844 128.019531 " fill-opacity="1" fill-rule="nonzero"/><path fill="#ffffff" d="M 630.085938 128.019531 L 639.222656 128.019531 L 639.222656 125.535156 L 630.085938 125.535156 L 630.085938 128.019531 " fill-opacity="1" fill-rule="nonzero"/><path fill="#ffffff" d="M 655.46875 117.410156 L 678.148438 117.410156 L 678.148438 119.898438 L 655.46875 119.898438 L 655.46875 117.410156 " fill-opacity="1" fill-rule="nonzero"/><path fill="#ffffff" d="M 651.410156 117.410156 L 651.410156 119.898438 L 642.605469 119.898438 L 642.605469 117.410156 L 651.410156 117.410156 " fill-opacity="1" fill-rule="nonzero"/><path fill="#ffffff" d="M 606.726562 119.898438 L 624.667969 119.898438 L 624.667969 117.410156 L 606.726562 117.410156 L 606.726562 119.898438 " fill-opacity="1" fill-rule="nonzero"/><path fill="#ffffff" d="M 630.085938 119.898438 L 639.222656 119.898438 L 639.222656 117.410156 L 630.085938 117.410156 L 630.085938 119.898438 " fill-opacity="1" fill-rule="nonzero"/><path fill="#ffffff" d="M 626.023438 137.382812 L 678.148438 137.382812 L 678.148438 134.902344 L 626.023438 134.902344 L 626.023438 137.382812 " fill-opacity="1" fill-rule="nonzero"/><path fill="#ffffff" d="M 583.035156 137.382812 L 622.976562 137.382812 L 622.976562 134.902344 L 583.035156 134.902344 L 583.035156 137.382812 " fill-opacity="1" fill-rule="nonzero"/><path fill="#ffffff" d="M 581 221.78125 L 581 224.261719 L 573.328125 224.261719 L 573.328125 221.78125 L 581 221.78125 " fill-opacity="1" fill-rule="nonzero"/><path fill="#ffffff" d="M 626.472656 204.578125 L 649.152344 204.578125 L 649.152344 207.0625 L 626.472656 207.0625 L 626.472656 204.578125 " fill-opacity="1" fill-rule="nonzero"/><path fill="#ffffff" d="M 622.410156 204.578125 L 622.410156 207.0625 L 613.609375 207.0625 L 613.609375 204.578125 L 622.410156 204.578125 " fill-opacity="1" fill-rule="nonzero"/><path fill="#ffffff" d="M 577.730469 207.0625 L 595.671875 207.0625 L 595.671875 204.578125 L 577.730469 204.578125 L 577.730469 207.0625 " fill-opacity="1" fill-rule="nonzero"/><path fill="#ffffff" d="M 601.082031 207.0625 L 610.222656 207.0625 L 610.222656 204.578125 L 601.082031 204.578125 L 601.082031 207.0625 " fill-opacity="1" fill-rule="nonzero"/><path fill="#ffffff" d="M 618.914062 213.660156 L 649.152344 213.660156 L 649.152344 216.140625 L 618.914062 216.140625 L 618.914062 213.660156 " fill-opacity="1" fill-rule="nonzero"/><path fill="#ffffff" d="M 615.753906 213.660156 L 615.753906 216.140625 L 573.328125 216.140625 L 573.328125 213.660156 L 615.753906 213.660156 " fill-opacity="1" fill-rule="nonzero"/><path fill="#ffffff" d="M 636.0625 221.78125 L 649.152344 221.78125 L 649.152344 224.261719 L 636.0625 224.261719 L 636.0625 221.78125 " fill-opacity="1" fill-rule="nonzero"/><path fill="#ffffff" d="M 632.226562 221.78125 L 632.226562 224.261719 L 618.914062 224.261719 L 618.914062 221.78125 L 632.226562 221.78125 " fill-opacity="1" fill-rule="nonzero"/><path fill="#ffffff" d="M 583.9375 221.78125 L 615.753906 221.78125 L 615.753906 224.261719 L 583.9375 224.261719 L 583.9375 221.78125 " fill-opacity="1" fill-rule="nonzero"/><path fill="#6097af" d="M 561.742188 306.992188 L 635.039062 306.992188 L 627.425781 271.300781 L 554.125 271.300781 L 561.742188 306.992188 " fill-opacity="1" fill-rule="nonzero"/><path fill="#6097af" d="M 557.691406 325.550781 C 568.644531 324.046875 562.046875 306.992188 562.046875 306.992188 L 635.039062 306.992188 C 635.039062 306.992188 635.742188 310.582031 636.304688 313.761719 C 637.269531 319.296875 638.574219 325.550781 630.683594 325.550781 L 557.691406 325.550781 " fill-opacity="1" fill-rule="nonzero"/><path fill="#88b8cc" d="M 555.453125 306.992188 L 628.753906 306.992188 L 621.136719 271.300781 L 547.835938 271.300781 L 555.453125 306.992188 " fill-opacity="1" fill-rule="nonzero"/><path fill="#88b8cc" d="M 551.40625 325.550781 C 559.277344 323.796875 555.453125 306.992188 555.453125 306.992188 L 628.753906 306.992188 C 628.753906 306.992188 629.859375 312.453125 630.515625 316.273438 C 631.589844 322.519531 629.886719 325.550781 624.394531 325.550781 L 551.40625 325.550781 " fill-opacity="1" fill-rule="nonzero"/><path fill="#6097af" d="M 526.695312 319.199219 L 631.902344 319.199219 L 629.484375 325.550781 L 526.695312 325.550781 C 525.203125 325.550781 523.996094 324.128906 523.996094 322.371094 C 523.996094 320.621094 525.203125 319.199219 526.695312 319.199219 " fill-opacity="1" fill-rule="nonzero"/><path fill="#9dd6ec" d="M 526.695312 319.199219 L 595.851562 319.199219 C 594.359375 319.199219 593.152344 320.621094 593.152344 322.371094 C 593.152344 324.128906 594.359375 325.550781 595.851562 325.550781 L 526.695312 325.550781 C 525.203125 325.550781 523.996094 324.128906 523.996094 322.371094 C 523.996094 320.621094 525.203125 319.199219 526.695312 319.199219 " fill-opacity="1" fill-rule="nonzero"/><g clip-path="url(#cb7512f693)"><path fill="#c77d5d" d="M 556.808594 346.5 L 20.972656 346.5 L 20.972656 325.554688 L 556.808594 325.554688 L 556.808594 346.5 " fill-opacity="1" fill-rule="nonzero"/></g><g clip-path="url(#e87b1f6540)"><path fill="#a55c4a" d="M 556.804688 346.496094 L 749.992188 346.496094 L 749.992188 325.550781 L 556.804688 325.550781 L 556.804688 346.496094 " fill-opacity="1" fill-rule="nonzero"/></g><path fill="#1f2338" d="M 195.21875 722.925781 L 214.164062 722.925781 L 214.164062 346.496094 L 195.21875 346.496094 L 195.21875 722.925781 " fill-opacity="1" fill-rule="nonzero"/><g clip-path="url(#f7f3f1f2dc)"><path fill="#1f2338" d="M 214.164062 722.925781 L 214.164062 703.617188 L 20.972656 703.617188 L 20.972656 722.925781 L 214.164062 722.925781 " fill-opacity="1" fill-rule="nonzero"/></g><g clip-path="url(#21d665a2d3)"><path fill="#1f2338" d="M 20.972656 722.925781 L 39.921875 722.925781 L 39.921875 346.5 L 20.972656 346.5 L 20.972656 722.925781 " fill-opacity="1" fill-rule="nonzero"/></g><path fill="#f78e8c" d="M 168.402344 239.84375 C 168.402344 239.84375 167.054688 294.441406 158.75 322.421875 C 158.75 322.421875 155.171875 361.917969 123.832031 345.730469 C 123.832031 345.730469 114.183594 336.027344 114.207031 242.761719 C 114.207031 242.761719 146.316406 213.28125 168.402344 239.84375 " fill-opacity="1" fill-rule="nonzero"/><path fill="#22377c" d="M 299.757812 316.328125 C 299.757812 321.417969 303.890625 325.550781 308.976562 325.550781 L 503.046875 325.550781 C 508.140625 325.550781 512.269531 321.417969 512.269531 316.328125 L 534.886719 193.144531 C 534.886719 188.054688 530.753906 183.925781 525.664062 183.925781 L 331.597656 183.925781 C 326.5 183.925781 322.375 188.054688 322.375 193.144531 L 299.757812 316.328125 " fill-opacity="1" fill-rule="nonzero"/><path fill="#172657" d="M 310.566406 299.953125 C 310.566406 304.136719 313.957031 307.519531 318.128906 307.519531 L 497.949219 307.519531 C 502.125 307.519531 505.511719 304.136719 505.511719 299.953125 L 524.078125 198.84375 C 524.078125 194.667969 520.691406 191.28125 516.507812 191.28125 L 336.699219 191.28125 C 332.519531 191.28125 329.132812 194.667969 329.132812 198.84375 L 310.566406 299.953125 " fill-opacity="1" fill-rule="nonzero"/><path fill="#111c41" d="M 512.996094 312.089844 L 200.261719 312.089844 C 200.261719 312.089844 191.300781 312.09375 187.808594 315.660156 L 178.964844 325.550781 L 509.925781 325.550781 L 512.996094 312.089844 " fill-opacity="1" fill-rule="nonzero"/><path fill="#2858b0" d="M 187.808594 315.660156 C 191.300781 312.09375 200.261719 312.089844 200.261719 312.089844 L 376.230469 312.089844 C 376.230469 312.089844 367.269531 312.09375 363.773438 315.660156 L 354.929688 325.550781 L 178.964844 325.550781 L 187.808594 315.660156 " fill-opacity="1" fill-rule="nonzero"/><path fill="#274495" d="M 238.816406 325.550781 L 286.828125 325.550781 L 290.617188 318.816406 L 242.601562 318.816406 L 238.816406 325.550781 " fill-opacity="1" fill-rule="nonzero"/><path fill="#15151e" d="M 315.050781 304.195312 L 498.417969 304.195312 L 517.984375 202.996094 L 334.617188 202.996094 L 315.050781 304.195312 " fill-opacity="1" fill-rule="nonzero"/><path fill="#ffffff" d="M 509.699219 203.214844 L 490.128906 304.410156 L 487.902344 303.980469 L 507.472656 202.78125 " fill-opacity="1" fill-rule="nonzero"/><path fill="#323660" d="M 334.632812 202.953125 L 517.996094 202.953125 L 519.609375 194.609375 L 336.242188 194.609375 L 334.632812 202.953125 " fill-opacity="1" fill-rule="nonzero"/><path fill="#ed3947" d="M 355.269531 198.785156 C 354.960938 200.34375 355.984375 201.613281 357.554688 201.613281 C 359.117188 201.613281 360.632812 200.34375 360.933594 198.785156 C 361.238281 197.21875 360.214844 195.945312 358.648438 195.945312 C 357.085938 195.945312 355.566406 197.21875 355.269531 198.785156 " fill-opacity="1" fill-rule="nonzero"/><path fill="#80cc28" d="M 347.800781 198.785156 C 347.5 200.34375 348.519531 201.613281 350.085938 201.613281 C 351.652344 201.613281 353.164062 200.34375 353.464844 198.785156 C 353.769531 197.21875 352.75 195.945312 351.183594 195.945312 C 349.613281 195.945312 348.105469 197.21875 347.800781 198.785156 " fill-opacity="1" fill-rule="nonzero"/><path fill="#ebb72e" d="M 340.40625 198.785156 C 340.101562 200.34375 341.125 201.613281 342.691406 201.613281 C 344.253906 201.613281 345.769531 200.34375 346.074219 198.785156 C 346.375 197.21875 345.351562 195.945312 343.789062 195.945312 C 342.222656 195.945312 340.707031 197.21875 340.40625 198.785156 " fill-opacity="1" fill-rule="nonzero"/><path fill="#ffffff" d="M 510.046875 206.867188 L 515.023438 206.867188 L 515.320312 205.347656 L 510.34375 205.347656 L 510.046875 206.867188 " fill-opacity="1" fill-rule="nonzero"/><path fill="#ffffff" d="M 509.082031 211.84375 L 514.0625 211.84375 L 514.355469 210.324219 L 509.378906 210.324219 L 509.082031 211.84375 " fill-opacity="1" fill-rule="nonzero"/><path fill="#ffffff" d="M 508.125 216.824219 L 513.101562 216.824219 L 513.394531 215.296875 L 508.417969 215.296875 L 508.125 216.824219 " fill-opacity="1" fill-rule="nonzero"/><path fill="#ffffff" d="M 507.160156 221.800781 L 512.136719 221.800781 L 512.433594 220.28125 L 507.457031 220.28125 L 507.160156 221.800781 " fill-opacity="1" fill-rule="nonzero"/><path fill="#ffffff" d="M 506.199219 226.777344 L 511.175781 226.777344 L 511.46875 225.257812 L 506.492188 225.257812 L 506.199219 226.777344 " fill-opacity="1" fill-rule="nonzero"/><path fill="#ffffff" d="M 505.234375 231.753906 L 510.210938 231.753906 L 510.507812 230.230469 L 505.53125 230.230469 L 505.234375 231.753906 " fill-opacity="1" fill-rule="nonzero"/><path fill="#ffffff" d="M 504.273438 236.734375 L 509.25 236.734375 L 509.546875 235.207031 L 504.570312 235.207031 L 504.273438 236.734375 " fill-opacity="1" fill-rule="nonzero"/><path fill="#ffffff" d="M 503.308594 241.707031 L 508.289062 241.707031 L 508.585938 240.1875 L 503.605469 240.1875 L 503.308594 241.707031 " fill-opacity="1" fill-rule="nonzero"/><path fill="#ffffff" d="M 502.347656 246.679688 L 507.324219 246.679688 L 507.617188 245.160156 L 502.644531 245.160156 L 502.347656 246.679688 " fill-opacity="1" fill-rule="nonzero"/><path fill="#ffffff" d="M 501.386719 251.660156 L 506.363281 251.660156 L 506.652344 250.140625 L 501.679688 250.140625 L 501.386719 251.660156 " fill-opacity="1" fill-rule="nonzero"/><path fill="#ffffff" d="M 500.421875 256.636719 L 505.402344 256.636719 L 505.699219 255.117188 L 500.71875 255.117188 L 500.421875 256.636719 " fill-opacity="1" fill-rule="nonzero"/><path fill="#ffffff" d="M 499.464844 261.613281 L 504.4375 261.613281 L 504.734375 260.09375 L 499.753906 260.09375 L 499.464844 261.613281 " fill-opacity="1" fill-rule="nonzero"/><path fill="#ffffff" d="M 498.5 266.59375 L 503.472656 266.59375 L 503.769531 265.074219 L 498.789062 265.074219 L 498.5 266.59375 " fill-opacity="1" fill-rule="nonzero"/><path fill="#ffffff" d="M 497.535156 271.570312 L 502.515625 271.570312 L 502.804688 270.046875 L 497.832031 270.046875 L 497.535156 271.570312 " fill-opacity="1" fill-rule="nonzero"/><path fill="#ffffff" d="M 496.574219 276.546875 L 501.550781 276.546875 L 501.84375 275.027344 L 496.867188 275.027344 L 496.574219 276.546875 " fill-opacity="1" fill-rule="nonzero"/><path fill="#ffffff" d="M 495.609375 281.523438 L 500.585938 281.523438 L 500.878906 280.003906 L 495.902344 280.003906 L 495.609375 281.523438 " fill-opacity="1" fill-rule="nonzero"/><path fill="#ffffff" d="M 494.648438 286.496094 L 499.625 286.496094 L 499.917969 284.976562 L 494.941406 284.976562 L 494.648438 286.496094 " fill-opacity="1" fill-rule="nonzero"/><path fill="#ffffff" d="M 493.6875 291.476562 L 498.664062 291.476562 L 498.957031 289.957031 L 493.980469 289.957031 L 493.6875 291.476562 " fill-opacity="1" fill-rule="nonzero"/><path fill="#ffffff" d="M 492.726562 296.449219 L 497.699219 296.449219 L 497.992188 294.929688 L 493.015625 294.929688 L 492.726562 296.449219 " fill-opacity="1" fill-rule="nonzero"/><path fill="#ffffff" d="M 491.761719 301.429688 L 496.738281 301.429688 L 497.03125 299.910156 L 492.054688 299.910156 L 491.761719 301.429688 " fill-opacity="1" fill-rule="nonzero"/><path fill="#ed3947" d="M 485.441406 206.867188 L 504.800781 206.867188 L 505.089844 205.347656 L 485.734375 205.347656 L 485.441406 206.867188 " fill-opacity="1" fill-rule="nonzero"/><path fill="#ed3947" d="M 454.582031 262.375 L 473.9375 262.375 L 474.230469 260.847656 L 454.878906 260.847656 L 454.582031 262.375 " fill-opacity="1" fill-rule="nonzero"/><path fill="#ed3947" d="M 467.722656 256.636719 L 475.046875 256.636719 L 475.34375 255.117188 L 468.011719 255.117188 L 467.722656 256.636719 " fill-opacity="1" fill-rule="nonzero"/><path fill="#3bbec5" d="M 496.507812 211.84375 L 503.835938 211.84375 L 504.128906 210.324219 L 496.800781 210.324219 L 496.507812 211.84375 " fill-opacity="1" fill-rule="nonzero"/><path fill="#3bbec5" d="M 492.019531 216.824219 L 502.875 216.824219 L 503.164062 215.296875 L 492.3125 215.296875 L 492.019531 216.824219 " fill-opacity="1" fill-rule="nonzero"/><path fill="#ffffff" d="M 467.417969 221.800781 L 489.1875 221.800781 L 489.484375 220.28125 L 467.707031 220.28125 L 467.417969 221.800781 " fill-opacity="1" fill-rule="nonzero"/><path fill="#ffffff" d="M 424.90625 221.800781 L 456.425781 221.800781 L 456.71875 220.28125 L 425.199219 220.28125 L 424.90625 221.800781 " fill-opacity="1" fill-rule="nonzero"/><path fill="#ffffff" d="M 459.742188 221.800781 L 465.339844 221.800781 L 465.636719 220.28125 L 460.039062 220.28125 L 459.742188 221.800781 " fill-opacity="1" fill-rule="nonzero"/><path fill="#ffffff" d="M 460.867188 230.992188 L 482.644531 230.992188 L 482.9375 229.472656 L 461.160156 229.472656 L 460.867188 230.992188 " fill-opacity="1" fill-rule="nonzero"/><path fill="#ffffff" d="M 418.359375 230.992188 L 449.875 230.992188 L 450.171875 229.472656 L 418.652344 229.472656 L 418.359375 230.992188 " fill-opacity="1" fill-rule="nonzero"/><path fill="#ffffff" d="M 453.195312 230.992188 L 458.792969 230.992188 L 459.089844 229.472656 L 453.492188 229.472656 L 453.195312 230.992188 " fill-opacity="1" fill-rule="nonzero"/><path fill="#ffffff" d="M 470.003906 224.492188 L 483.898438 224.492188 L 483.601562 226.019531 L 469.710938 226.019531 L 470.003906 224.492188 " fill-opacity="1" fill-rule="nonzero"/><path fill="#ffffff" d="M 467.515625 224.492188 L 467.222656 226.019531 L 461.832031 226.019531 L 462.125 224.492188 L 467.515625 224.492188 " fill-opacity="1" fill-rule="nonzero"/><path fill="#ffffff" d="M 439.851562 226.019531 L 450.839844 226.019531 L 451.136719 224.492188 L 440.144531 224.492188 L 439.851562 226.019531 " fill-opacity="1" fill-rule="nonzero"/><path fill="#ffffff" d="M 454.15625 226.019531 L 459.761719 226.019531 L 460.050781 224.492188 L 454.453125 224.492188 L 454.15625 226.019531 " fill-opacity="1" fill-rule="nonzero"/><path fill="#ffffff" d="M 441.910156 277.894531 L 455.804688 277.894531 L 455.511719 279.417969 L 441.617188 279.417969 L 441.910156 277.894531 " fill-opacity="1" fill-rule="nonzero"/><path fill="#ffffff" d="M 439.421875 277.894531 L 439.128906 279.417969 L 433.738281 279.417969 L 434.03125 277.894531 L 439.421875 277.894531 " fill-opacity="1" fill-rule="nonzero"/><path fill="#ffffff" d="M 411.753906 279.417969 L 422.746094 279.417969 L 423.042969 277.894531 L 412.050781 277.894531 L 411.753906 279.417969 " fill-opacity="1" fill-rule="nonzero"/><path fill="#ffffff" d="M 426.066406 279.417969 L 431.664062 279.417969 L 431.957031 277.894531 L 426.359375 277.894531 L 426.066406 279.417969 " fill-opacity="1" fill-rule="nonzero"/><path fill="#00adef" d="M 486.421875 216.824219 L 490.152344 216.824219 L 490.449219 215.296875 L 486.714844 215.296875 L 486.421875 216.824219 " fill-opacity="1" fill-rule="nonzero"/><path fill="#3bbec5" d="M 465.65625 266.59375 L 472.984375 266.59375 L 473.277344 265.074219 L 465.949219 265.074219 L 465.65625 266.59375 " fill-opacity="1" fill-rule="nonzero"/><path fill="#3bbec5" d="M 461.167969 271.570312 L 472.019531 271.570312 L 472.3125 270.046875 L 461.464844 270.046875 L 461.167969 271.570312 " fill-opacity="1" fill-rule="nonzero"/><path fill="#00adef" d="M 455.570312 271.570312 L 459.304688 271.570312 L 459.59375 270.046875 L 455.863281 270.046875 L 455.570312 271.570312 " fill-opacity="1" fill-rule="nonzero"/><path fill="#3bbec5" d="M 460.507812 293.207031 L 467.835938 293.207031 L 468.128906 291.6875 L 460.804688 291.6875 L 460.507812 293.207031 " fill-opacity="1" fill-rule="nonzero"/><path fill="#3bbec5" d="M 456.023438 298.179688 L 466.875 298.179688 L 467.167969 296.660156 L 456.316406 296.660156 L 456.023438 298.179688 " fill-opacity="1" fill-rule="nonzero"/><path fill="#00adef" d="M 450.421875 298.179688 L 454.15625 298.179688 L 454.453125 296.660156 L 450.714844 296.660156 L 450.421875 298.179688 " fill-opacity="1" fill-rule="nonzero"/><path fill="#3bbec5" d="M 487.207031 241.707031 L 498.0625 241.707031 L 498.355469 240.1875 L 487.5 240.1875 L 487.207031 241.707031 " fill-opacity="1" fill-rule="nonzero"/><path fill="#00adef" d="M 481.605469 241.707031 L 485.339844 241.707031 L 485.632812 240.1875 L 481.902344 240.1875 L 481.605469 241.707031 " fill-opacity="1" fill-rule="nonzero"/><path fill="#80cc28" d="M 477.699219 206.867188 L 482.675781 206.867188 L 482.972656 205.347656 L 477.996094 205.347656 L 477.699219 206.867188 " fill-opacity="1" fill-rule="nonzero"/><path fill="#80cc28" d="M 462.929688 248.207031 L 484.085938 248.207031 L 484.378906 246.679688 L 463.222656 246.679688 L 462.929688 248.207031 " fill-opacity="1" fill-rule="nonzero"/><path fill="#ffffff" d="M 449.597656 236.734375 L 481.53125 236.734375 L 481.828125 235.207031 L 449.890625 235.207031 L 449.597656 236.734375 " fill-opacity="1" fill-rule="nonzero"/><path fill="#ffffff" d="M 423.261719 236.734375 L 447.730469 236.734375 L 448.023438 235.207031 L 423.558594 235.207031 L 423.261719 236.734375 " fill-opacity="1" fill-rule="nonzero"/><path fill="#ffffff" d="M 436.207031 283.457031 L 454.730469 283.457031 L 454.4375 284.976562 L 435.914062 284.976562 L 436.207031 283.457031 " fill-opacity="1" fill-rule="nonzero"/><path fill="#ffffff" d="M 434.269531 283.457031 L 433.976562 284.976562 L 407.988281 284.976562 L 408.28125 283.457031 L 434.269531 283.457031 " fill-opacity="1" fill-rule="nonzero"/><path fill="#ffffff" d="M 445.75 288.433594 L 453.765625 288.433594 L 453.476562 289.957031 L 445.453125 289.957031 L 445.75 288.433594 " fill-opacity="1" fill-rule="nonzero"/><path fill="#ffffff" d="M 443.402344 288.433594 L 443.105469 289.957031 L 434.953125 289.957031 L 435.242188 288.433594 L 443.402344 288.433594 " fill-opacity="1" fill-rule="nonzero"/><path fill="#ffffff" d="M 412.019531 288.433594 L 411.722656 289.957031 L 407.023438 289.957031 L 407.316406 288.433594 L 412.019531 288.433594 " fill-opacity="1" fill-rule="nonzero"/><path fill="#ffffff" d="M 413.816406 288.433594 L 433.308594 288.433594 L 433.011719 289.957031 L 413.519531 289.957031 L 413.816406 288.433594 " fill-opacity="1" fill-rule="nonzero"/><path fill="#984b67" d="M 132.292969 250.671875 C 124.175781 248.59375 116.449219 245.625 109.007812 242.027344 C 109.203125 240.511719 109.386719 238.988281 109.542969 237.464844 C 110.902344 225.011719 109.585938 211.457031 112.707031 199.214844 C 117.113281 181.886719 132.046875 137.964844 157.726562 165.472656 C 167.121094 175.53125 169.195312 189.898438 171.738281 202.4375 C 175.050781 218.777344 177.179688 235.042969 178.378906 251.574219 C 163.109375 254.335938 147.449219 254.554688 132.292969 250.671875 " fill-opacity="1" fill-rule="nonzero"/><g clip-path="url(#2b07be8471)"><path fill="#1f2338" d="M 731.050781 715.820312 L 749.992188 715.820312 L 749.992188 346.496094 L 731.050781 346.496094 L 731.050781 715.820312 " fill-opacity="1" fill-rule="nonzero"/></g><g clip-path="url(#bd4e46a930)"><path fill="#1f2338" d="M 749.992188 722.925781 L 749.992188 703.617188 L 556.804688 703.617188 L 556.804688 722.925781 L 749.992188 722.925781 " fill-opacity="1" fill-rule="nonzero"/></g><path fill="#1f2338" d="M 556.804688 715.820312 L 575.75 715.820312 L 575.75 346.496094 L 556.804688 346.496094 L 556.804688 715.820312 " fill-opacity="1" fill-rule="nonzero"/><path fill="#f78e8c" d="M 119.984375 243.257812 C 119.984375 243.257812 117.238281 278.855469 108.4375 306.679688 C 108.4375 306.679688 95.617188 356.28125 73.335938 316.519531 C 73.335938 316.519531 64.40625 288.96875 65.746094 245.199219 C 65.746094 245.199219 98.375 216.304688 119.984375 243.257812 " fill-opacity="1" fill-rule="nonzero"/><path fill="#984b67" d="M 60.863281 261.597656 C 57.726562 244.101562 62.371094 216.261719 65.609375 198.78125 C 67.832031 186.75 70.238281 178.894531 75.113281 167.589844 C 84.972656 144.683594 122.101562 148.714844 122.101562 148.714844 C 133.242188 160.449219 138.527344 190.804688 137.367188 208.140625 C 136.554688 220.347656 133.769531 254.59375 133.179688 269.210938 C 110.414062 276.0625 80.117188 276.464844 60.863281 261.597656 " fill-opacity="1" fill-rule="nonzero"/><path fill="#f78e8c" d="M 385.070312 682.878906 L 383.664062 637.636719 L 419.113281 637.636719 L 413.925781 678.835938 L 385.070312 682.878906 " fill-opacity="1" fill-rule="nonzero"/><path fill="#1c0c19" d="M 385.070312 682.878906 L 377.117188 722.925781 L 471.429688 722.925781 C 471.429688 722.925781 473.824219 716.789062 466.382812 711.613281 L 431.039062 695.445312 L 413.925781 678.835938 L 385.070312 682.878906 " fill-opacity="1" fill-rule="nonzero"/><path fill="#3e526e" d="M 415.5625 489.058594 L 436.136719 657.148438 C 436.136719 657.148438 408.945312 676.46875 380.65625 680.421875 L 327.351562 489.058594 L 415.5625 489.058594 " fill-opacity="1" fill-rule="nonzero"/><path fill="#f78e8c" d="M 364.960938 298.816406 C 368.058594 297.097656 376.929688 294.082031 380.765625 295.25 C 383.875 296.195312 389.785156 298.902344 392.84375 300.113281 C 398.882812 302.496094 404.25 306.175781 409.566406 307.808594 C 419.121094 310.75 424.867188 313.589844 428.9375 315.503906 C 435.691406 318.6875 441.316406 324.1875 436.199219 325.324219 C 429.675781 326.78125 414.132812 325.753906 407.574219 326.160156 C 398.550781 326.734375 389.507812 326.015625 380.503906 326.578125 C 372.085938 327.101562 362.476562 327.378906 354.5 325.753906 C 342.480469 323.292969 341.984375 312.125 351.375 306.328125 C 360.160156 300.910156 351.375 306.328125 364.960938 298.816406 " fill-opacity="1" fill-rule="nonzero"/><path fill="#f78e8c" d="M 458.789062 682.878906 L 446.105469 637.636719 L 481.558594 637.636719 L 487.644531 678.835938 L 458.789062 682.878906 " fill-opacity="1" fill-rule="nonzero"/><path fill="#251224" d="M 458.789062 682.878906 L 450.832031 722.925781 L 545.148438 722.925781 C 545.148438 722.925781 547.542969 716.789062 540.101562 711.613281 L 504.761719 695.445312 L 487.644531 678.835938 L 458.789062 682.878906 " fill-opacity="1" fill-rule="nonzero"/><path fill="#455c7c" d="M 454.382812 680.425781 L 351.953125 491.441406 L 214.039062 491.441406 C 214.039062 491.441406 131.511719 502.863281 107.664062 475.261719 C 107.664062 475.261719 86.8125 446.828125 99.984375 376.511719 L 244.746094 376.511719 L 251.265625 399.105469 L 384.164062 408.023438 C 423.4375 408.023438 431.117188 440.773438 431.117188 440.773438 L 509.855469 657.148438 C 509.855469 657.148438 482.667969 676.46875 454.382812 680.425781 " fill-opacity="1" fill-rule="nonzero"/><path fill="#f78e8c" d="M 167.25 93.191406 C 177.414062 104.09375 192.371094 120.058594 206.539062 119.070312 C 220.21875 118.113281 224.230469 92.292969 227.1875 81.382812 C 228.082031 78.101562 228.722656 74.761719 229.085938 71.402344 C 229.558594 66.960938 230.566406 62.53125 231.167969 58.15625 L 231.214844 57.859375 C 231.398438 56.5 231.542969 55.144531 231.617188 53.792969 C 231.652344 53.167969 231.667969 52.539062 231.683594 51.921875 C 231.710938 47.417969 230.867188 42.988281 228.089844 38.675781 C 222.703125 30.320312 211.621094 24.121094 201.1875 23.453125 C 186.695312 22.527344 171.070312 32.085938 164.65625 43.886719 C 156.445312 59 154.355469 79.375 167.25 93.191406 " fill-opacity="1" fill-rule="nonzero"/><path fill="#f78e8c" d="M 197.699219 112.707031 L 194.367188 135.160156 L 147.914062 127.753906 L 155.089844 105.339844 C 155.089844 105.339844 166.605469 89.679688 197.699219 112.707031 " fill-opacity="1" fill-rule="nonzero"/><path fill="#39151d" d="M 211.195312 69.921875 C 205.957031 77.054688 210.40625 56.632812 202.332031 54.441406 C 196.617188 52.894531 192.449219 57.601562 190.429688 62.96875 C 187.679688 70.273438 195.824219 71.730469 195.925781 77.273438 C 195.996094 81.15625 188.710938 99.359375 187.5 102.898438 C 183.570312 114.355469 168.992188 115.441406 159.992188 109.75 C 152.160156 104.808594 153.570312 100.503906 153.191406 97.746094 C 149.875 73.851562 150.042969 73.8125 150.367188 50.898438 C 150.519531 40.753906 150.785156 32.75 159.433594 25.382812 C 164.28125 21.257812 168.882812 22.230469 173.976562 19.34375 C 179.1875 16.394531 180.703125 11.90625 187 10.359375 C 199.519531 7.28125 204.441406 15.863281 215.179688 17.175781 C 222.445312 18.0625 236.035156 19.886719 241.417969 23.394531 C 248.773438 28.183594 253.46875 33.929688 249.808594 43.859375 C 246.269531 53.449219 222.667969 54.296875 211.195312 69.921875 " fill-opacity="1" fill-rule="nonzero"/><path fill="#f78e8c" d="M 191.171875 60.234375 C 188.109375 65.261719 188.136719 72.90625 192.386719 78.070312 C 198.160156 85.09375 204.351562 81.003906 207.609375 75.449219 C 210.234375 70.96875 212.382812 61.933594 207.203125 56.933594 C 202.324219 52.222656 193.675781 56.109375 191.171875 60.234375 " fill-opacity="1" fill-rule="nonzero"/><path fill="#592630" d="M 204.089844 60.269531 C 204.691406 61.414062 204.933594 62.792969 204.933594 64.28125 C 204.933594 66.671875 204.289062 69.367188 203.03125 71.710938 C 201.769531 74.046875 199.855469 76.082031 197.21875 76.863281 C 196.609375 77.035156 195.984375 76.691406 195.804688 76.089844 C 195.625 75.488281 195.976562 74.855469 196.582031 74.679688 C 198.425781 74.148438 199.957031 72.625 201.035156 70.632812 C 202.105469 68.660156 202.671875 66.261719 202.664062 64.28125 C 202.671875 63.050781 202.445312 61.992188 202.085938 61.328125 C 201.796875 60.777344 202.003906 60.089844 202.558594 59.792969 C 203.113281 59.503906 203.792969 59.710938 204.089844 60.269531 " fill-opacity="1" fill-rule="nonzero"/><path fill="#592630" d="M 197.34375 63.003906 C 198.441406 63.222656 199.722656 63.613281 200.914062 64.246094 C 202.09375 64.882812 203.230469 65.753906 203.816406 67.082031 C 204.074219 67.65625 203.8125 68.324219 203.242188 68.578125 C 202.667969 68.828125 201.992188 68.574219 201.742188 68 C 201.488281 67.378906 200.777344 66.746094 199.847656 66.246094 C 198.921875 65.753906 197.808594 65.40625 196.910156 65.230469 C 196.292969 65.113281 195.886719 64.515625 196.011719 63.898438 C 196.132812 63.285156 196.730469 62.882812 197.34375 63.003906 " fill-opacity="1" fill-rule="nonzero"/><path fill="#984b67" d="M 85.910156 156.496094 C 81.359375 163.488281 75.570312 165.296875 75.570312 179.570312 L 100.382812 368.050781 L 206.789062 368.050781 L 219.265625 277.824219 L 251.15625 241.367188 C 264.992188 191.097656 251.273438 173.566406 251.273438 173.566406 C 244.5 169.066406 221.46875 152.519531 215.371094 147.359375 C 207.203125 140.457031 200.8125 135.359375 195.8125 131.511719 C 190.53125 127.453125 181.648438 127.75 175.355469 126.464844 C 168.792969 125.128906 155.972656 122.476562 149.617188 122.433594 L 85.910156 156.496094 " fill-opacity="1" fill-rule="nonzero"/><path fill="#984b67" d="M 89.265625 429.167969 C 82.863281 414.140625 82.101562 367.015625 81.128906 336.234375 C 80.515625 316.664062 84.734375 288.609375 83.628906 270.367188 C 82.488281 251.585938 80.292969 232.230469 75.964844 214.132812 C 72.335938 198.980469 72.105469 164.21875 85.90625 156.488281 C 111.550781 142.128906 146.550781 173.652344 173.621094 184.644531 C 187.109375 190.125 198.695312 198.0625 207.824219 208.832031 C 214.214844 216.367188 223.011719 227.40625 224.734375 237.332031 C 226.550781 247.832031 246.566406 254.320312 245.628906 265.082031 C 243.015625 294.839844 248.851562 314.304688 245.628906 356.59375 C 245.132812 362.976562 247.96875 370.085938 250.539062 375.746094 C 252.710938 380.492188 255.414062 385.019531 258.65625 389.101562 C 260.941406 391.992188 277.445312 398.199219 275.304688 400.714844 C 266.589844 410.957031 234.523438 413.328125 226.609375 413.691406 C 207.765625 414.558594 201.691406 432.21875 189.398438 444.472656 C 174.828125 459.019531 162.632812 453.03125 143.757812 451.933594 C 135.863281 451.472656 130.023438 449.40625 122.519531 449.78125 C 115.355469 450.144531 107.597656 447.546875 100.238281 448.722656 " fill-opacity="1" fill-rule="nonzero"/><path fill="#f78e8c" d="M 297.054688 310.9375 C 310.054688 310.363281 323.023438 309.5625 336.015625 308.921875 C 347.789062 308.335938 359.746094 307.929688 371.457031 309.570312 C 368.640625 326.488281 338.613281 334.226562 325.320312 339.214844 C 310.738281 344.683594 297.714844 350.949219 282.828125 354.046875 C 266.484375 357.445312 252.949219 359.066406 242.726562 342.953125 C 237.824219 335.21875 236.445312 327.945312 238.253906 321.855469 C 256.285156 313.320312 277.101562 311.820312 297.054688 310.9375 " fill-opacity="1" fill-rule="nonzero"/><path fill="#f78e8c" d="M 275.496094 262.519531 C 275.496094 262.519531 279.167969 298.039062 275.496094 326.988281 C 275.496094 326.988281 258.1875 345.335938 242.726562 342.953125 C 242.726562 342.953125 229.007812 317.453125 222.480469 274.148438 C 222.480469 274.148438 249.40625 239.875 275.496094 262.519531 " fill-opacity="1" fill-rule="nonzero"/><path fill="#984b67" d="M 214.328125 289.242188 C 208.109375 272.578125 202.082031 255.316406 202.128906 237.546875 C 202.164062 225.3125 205.652344 212.550781 208.425781 200.558594 C 214.027344 176.253906 251.273438 173.566406 251.273438 173.566406 C 264.332031 183.113281 274.96875 212.027344 276.941406 229.292969 C 278.324219 241.449219 280.472656 255.359375 282.515625 269.839844 C 261.332031 280.660156 238.027344 286.722656 214.328125 289.242188 " fill-opacity="1" fill-rule="nonzero"/><path fill="#1d1e32" d="M 196.835938 140.613281 C 178.449219 140.605469 159.355469 140.152344 143.242188 131.996094 C 142.683594 131.710938 142.464844 131.027344 142.75 130.46875 C 143.03125 129.910156 143.714844 129.6875 144.273438 129.96875 C 159.738281 137.828125 178.480469 138.347656 196.835938 138.339844 C 197.457031 138.339844 197.972656 138.851562 197.972656 139.476562 C 197.972656 140.105469 197.457031 140.613281 196.835938 140.613281 " fill-opacity="1" fill-rule="nonzero"/><path fill="#1d1e32" d="M 241.59375 170.320312 C 236.113281 171.171875 230.046875 175.332031 225.128906 180.507812 C 220.199219 185.65625 216.394531 191.820312 215.203125 196.300781 C 213.492188 202.644531 212.816406 210.128906 212.816406 218.96875 C 212.816406 229.019531 213.6875 240.820312 214.84375 254.691406 C 214.894531 255.3125 214.429688 255.863281 213.804688 255.914062 C 213.179688 255.964844 212.632812 255.503906 212.578125 254.875 C 211.425781 241 210.546875 229.152344 210.546875 218.96875 C 210.546875 210.015625 211.222656 202.34375 213.007812 195.707031 C 214.386719 190.644531 218.351562 184.339844 223.488281 178.941406 C 228.632812 173.566406 234.9375 169.097656 241.234375 168.078125 C 241.855469 167.976562 242.4375 168.398438 242.535156 169.019531 C 242.636719 169.636719 242.214844 170.21875 241.59375 170.320312 " fill-opacity="1" fill-rule="nonzero"/><path fill="#1d1e32" d="M 476.71875 660.679688 C 465.484375 632.558594 430.402344 553.0625 418.179688 525.453125 C 411.175781 509.636719 404.527344 493.929688 396.09375 479 C 393.335938 474.117188 390.738281 468.125 387.742188 462.511719 C 384.746094 456.898438 381.34375 451.683594 377.132812 448.351562 C 372.609375 444.769531 366.644531 442.640625 360.359375 441.253906 C 354.078125 439.867188 347.5 439.222656 341.761719 438.488281 C 328.59375 436.808594 313.890625 437.542969 300.117188 437.125 C 279.363281 436.480469 262.894531 435.65625 245.46875 435.65625 C 235.546875 435.65625 225.3125 435.921875 213.777344 436.640625 C 213.15625 436.679688 212.613281 436.207031 212.578125 435.582031 C 212.535156 434.957031 213.015625 434.417969 213.636719 434.378906 C 225.214844 433.65625 235.507812 433.386719 245.46875 433.386719 C 262.96875 433.386719 279.457031 434.210938 300.191406 434.851562 C 313.835938 435.277344 328.59375 434.527344 342.046875 436.238281 C 347.738281 436.964844 354.390625 437.613281 360.851562 439.039062 C 367.304688 440.46875 373.589844 442.660156 378.539062 446.574219 C 383.175781 450.253906 386.6875 455.722656 389.742188 461.441406 C 392.796875 467.160156 395.398438 473.15625 398.074219 477.882812 C 406.589844 492.964844 413.257812 508.742188 420.253906 524.535156 C 432.484375 552.164062 467.554688 631.625 478.824219 659.835938 C 479.058594 660.417969 478.773438 661.078125 478.191406 661.3125 C 477.609375 661.542969 476.949219 661.265625 476.71875 660.679688 " fill-opacity="1" fill-rule="nonzero"/><path fill="#1d1e32" d="M 405.925781 667.464844 C 388.148438 598.558594 383.039062 585.03125 370.347656 529.546875 C 370.210938 528.9375 370.59375 528.328125 371.207031 528.183594 C 371.816406 528.046875 372.425781 528.425781 372.5625 529.039062 C 385.238281 584.453125 390.335938 597.9375 408.125 666.902344 C 408.28125 667.507812 407.914062 668.125 407.308594 668.285156 C 406.703125 668.433594 406.085938 668.078125 405.925781 667.464844 " fill-opacity="1" fill-rule="nonzero"/><path fill="#1d1e32" d="M 211.191406 69.914062 L 230.769531 70.746094 L 230.769531 73.835938 L 209.363281 71.421875 L 211.191406 69.914062 " fill-opacity="1" fill-rule="nonzero"/><path fill="#1d1e32" d="M 230.703125 68.890625 C 231.933594 68.890625 233.074219 68.972656 234.171875 69.203125 C 235 69.371094 235.816406 69.628906 236.59375 70.023438 C 237.757812 70.59375 238.859375 71.566406 239.535156 72.796875 C 240.21875 74.023438 240.472656 75.378906 240.46875 76.683594 C 240.464844 78.292969 240.128906 79.902344 239.566406 81.683594 C 239.007812 83.464844 238.207031 85.417969 237.179688 87.625 C 236.097656 89.882812 234.8125 92.714844 232.339844 95.035156 C 231.511719 95.792969 230.679688 96.460938 229.660156 96.972656 C 228.648438 97.484375 227.441406 97.757812 226.34375 97.746094 C 225.210938 97.746094 224.21875 97.527344 223.203125 97.265625 L 224.914062 90.679688 C 225.691406 90.878906 226.164062 90.941406 226.34375 90.9375 L 226.636719 90.871094 C 226.785156 90.800781 227.152344 90.5625 227.726562 90.03125 C 228.902344 88.980469 230.007812 86.929688 231.007812 84.742188 C 231.957031 82.710938 232.640625 81.003906 233.074219 79.636719 C 233.507812 78.273438 233.667969 77.25 233.660156 76.683594 C 233.660156 76.261719 233.589844 76.121094 233.589844 76.121094 L 233.703125 76.0625 L 233.621094 76.160156 L 233.589844 76.121094 L 233.703125 76.0625 L 233.621094 76.160156 C 233.621094 76.160156 233.464844 76.027344 232.976562 75.910156 C 232.492188 75.789062 231.710938 75.699219 230.703125 75.699219 L 230.703125 68.890625 " fill-opacity="1" fill-rule="nonzero"/><path fill="#22335a" d="M 42.960938 520.941406 C 42.960938 529.792969 50.136719 536.957031 58.976562 536.957031 L 336.996094 536.957031 C 345.847656 536.957031 353.015625 529.792969 353.015625 520.941406 L 353.015625 505.078125 C 353.015625 496.230469 345.847656 489.058594 336.996094 489.058594 L 58.976562 489.058594 C 50.136719 489.058594 42.960938 496.230469 42.960938 505.078125 L 42.960938 520.941406 " fill-opacity="1" fill-rule="nonzero"/><path fill="#192542" d="M 58.976562 489.058594 L 196.34375 489.058594 C 187.492188 489.058594 180.324219 496.230469 180.324219 505.078125 L 180.324219 520.941406 C 180.324219 529.792969 187.492188 536.957031 196.34375 536.957031 L 58.976562 536.957031 C 50.136719 536.957031 42.960938 529.792969 42.960938 520.941406 L 42.960938 505.078125 C 42.960938 496.230469 50.136719 489.058594 58.976562 489.058594 " fill-opacity="1" fill-rule="nonzero"/><path fill="#101729" d="M 114.035156 536.957031 L 137.703125 536.957031 L 137.703125 352.132812 L 114.035156 352.132812 L 114.035156 536.957031 " fill-opacity="1" fill-rule="nonzero"/><path fill="#192542" d="M 51.585938 323.035156 C 51.585938 339.097656 64.609375 352.132812 80.679688 352.132812 L 194.367188 352.132812 C 210.441406 352.132812 223.464844 339.097656 223.464844 323.035156 L 223.464844 262.144531 C 223.464844 246.078125 210.441406 233.046875 194.367188 233.046875 L 80.679688 233.046875 C 64.609375 233.046875 51.585938 246.078125 51.585938 262.144531 L 51.585938 323.035156 " fill-opacity="1" fill-rule="nonzero"/><path fill="#22335a" d="M 205.839844 323.472656 L 206.152344 262.585938 C 206.230469 247.015625 194.058594 234.234375 178.683594 233.386719 L 178.683594 233.046875 L 194.371094 233.046875 C 210.441406 233.046875 223.464844 246.078125 223.464844 262.148438 L 223.464844 323.03125 C 223.464844 339.101562 210.441406 352.128906 194.371094 352.128906 L 180.851562 352.128906 C 194.914062 350.136719 205.761719 338.09375 205.839844 323.472656 " fill-opacity="1" fill-rule="nonzero"/><path fill="#151b2f" d="M 211.382812 682.878906 L 233.578125 682.878906 L 233.578125 536.957031 L 211.382812 536.957031 L 211.382812 682.878906 " fill-opacity="1" fill-rule="nonzero"/><path fill="#1d2b4c" d="M 211.382812 682.878906 L 233.578125 682.878906 L 233.578125 651.484375 L 211.382812 651.484375 L 211.382812 682.878906 " fill-opacity="1" fill-rule="nonzero"/><path fill="#151b2f" d="M 206.566406 707.183594 C 206.566406 715.878906 213.613281 722.925781 222.308594 722.925781 C 231.003906 722.925781 238.050781 715.878906 238.050781 707.183594 C 238.050781 698.488281 231.003906 691.445312 222.308594 691.445312 C 213.613281 691.445312 206.566406 698.488281 206.566406 707.183594 " fill-opacity="1" fill-rule="nonzero"/><path fill="#497389" d="M 215.863281 707.183594 C 215.863281 710.742188 218.75 713.632812 222.308594 713.632812 C 225.871094 713.632812 228.753906 710.742188 228.753906 707.183594 C 228.753906 703.621094 225.871094 700.738281 222.308594 700.738281 C 218.75 700.738281 215.863281 703.621094 215.863281 707.183594 " fill-opacity="1" fill-rule="nonzero"/><path fill="#151b2f" d="M 292.785156 707.183594 C 292.785156 715.878906 299.832031 722.925781 308.53125 722.925781 C 317.222656 722.925781 324.265625 715.878906 324.265625 707.183594 C 324.265625 698.488281 317.222656 691.445312 308.53125 691.445312 C 299.832031 691.445312 292.785156 698.488281 292.785156 707.183594 " fill-opacity="1" fill-rule="nonzero"/><path fill="#497389" d="M 302.078125 707.183594 C 302.078125 710.742188 304.964844 713.632812 308.53125 713.632812 C 312.089844 713.632812 314.972656 710.742188 314.972656 707.183594 C 314.972656 703.621094 312.089844 700.738281 308.53125 700.738281 C 304.964844 700.738281 302.078125 703.621094 302.078125 707.183594 " fill-opacity="1" fill-rule="nonzero"/><path fill="#151b2f" d="M 120.347656 707.183594 C 120.347656 715.878906 127.394531 722.925781 136.097656 722.925781 C 144.78125 722.925781 151.832031 715.878906 151.832031 707.183594 C 151.832031 698.488281 144.78125 691.441406 136.097656 691.441406 C 127.394531 691.441406 120.347656 698.488281 120.347656 707.183594 " fill-opacity="1" fill-rule="nonzero"/><path fill="#497389" d="M 129.640625 707.183594 C 129.640625 710.742188 132.527344 713.632812 136.097656 713.632812 C 139.652344 713.632812 142.539062 710.742188 142.539062 707.183594 C 142.539062 703.621094 139.652344 700.738281 136.097656 700.738281 C 132.527344 700.738281 129.640625 703.621094 129.640625 707.183594 " fill-opacity="1" fill-rule="nonzero"/><path fill="#1d2b4c" d="M 126.191406 695.84375 C 129.660156 687.398438 139.46875 688.0625 139.46875 688.0625 L 215.28125 679.386719 L 229.332031 679.386719 L 305.152344 688.0625 C 305.152344 688.0625 314.957031 687.398438 318.429688 695.84375 L 126.191406 695.84375 " fill-opacity="1" fill-rule="nonzero"/></svg>