<svg xmlns="http://www.w3.org/2000/svg" xmlns:xlink="http://www.w3.org/1999/xlink" width="500" zoomAndPan="magnify" viewBox="0 0 375 374.999991" height="500" preserveAspectRatio="xMidYMid meet" version="1.0"><defs><g/></defs><g fill="#e4dcd1" fill-opacity="1"><g transform="translate(35.633824, 229.921274)"><g><path d="M 174.484375 -97.46875 C 175.066406 -96.976562 175.59375 -96.421875 176.0625 -95.796875 C 176.539062 -95.179688 176.847656 -94.445312 176.984375 -93.59375 C 177.140625 -92.644531 176.800781 -91.925781 175.96875 -91.4375 C 175.46875 -91.1875 174.984375 -91.148438 174.515625 -91.328125 C 174.046875 -91.503906 173.707031 -91.863281 173.5 -92.40625 C 172.957031 -93.894531 172.140625 -95.070312 171.046875 -95.9375 C 169.960938 -96.800781 168.773438 -97.5625 167.484375 -98.21875 C 164.648438 -99.707031 161.722656 -100.914062 158.703125 -101.84375 C 155.691406 -102.78125 152.65625 -103.597656 149.59375 -104.296875 C 144.476562 -105.378906 137.671875 -106.082031 129.171875 -106.40625 C 120.671875 -106.738281 111.207031 -106.613281 100.78125 -106.03125 C 90.351562 -105.457031 79.679688 -104.34375 68.765625 -102.6875 C 57.847656 -101.039062 47.394531 -98.769531 37.40625 -95.875 C 27.414062 -92.976562 18.644531 -89.375 11.09375 -85.0625 C 3.539062 -80.75 -2.09375 -75.664062 -5.8125 -69.8125 C -8.914062 -64.726562 -9.535156 -59.359375 -7.671875 -53.703125 C -6.316406 -49.828125 -4.378906 -46.300781 -1.859375 -43.125 C 1.898438 -38.375 6.066406 -34.019531 10.640625 -30.0625 C 14.492188 -26.550781 18.378906 -23.035156 22.296875 -19.515625 C 26.097656 -16.140625 29.910156 -12.71875 33.734375 -9.25 C 37.992188 -5.332031 42.1875 -1.367188 46.3125 2.640625 C 46.6875 3.015625 47.078125 3.382812 47.484375 3.75 C 49.710938 5.820312 51.671875 8.117188 53.359375 10.640625 C 55.097656 13.523438 55.429688 15.757812 54.359375 17.34375 C 53.285156 18.925781 51.25 20 48.25 20.5625 C 45.257812 21.125 41.785156 21.296875 37.828125 21.078125 C 33.867188 20.867188 29.878906 20.375 25.859375 19.59375 C 21.835938 18.820312 18.265625 17.894531 15.140625 16.8125 C 12.023438 15.738281 9.828125 14.625 8.546875 13.46875 C 5.972656 11.082031 5.800781 8.5625 8.03125 5.90625 C 10.445312 3.1875 13.390625 1.207031 16.859375 -0.03125 C 21.878906 -1.96875 26.957031 -2.125 32.09375 -0.5 C 33.082031 -0.144531 34.023438 0.320312 34.921875 0.90625 C 35.015625 0.957031 35.09375 1.015625 35.15625 1.078125 C 35.40625 1.210938 35.570312 1.414062 35.65625 1.6875 C 35.75 1.957031 35.707031 2.25 35.53125 2.5625 C 35.125 3.0625 34.628906 3.207031 34.046875 3 C 33.484375 2.800781 32.953125 2.554688 32.453125 2.265625 C 28.898438 0.484375 25.242188 0.109375 21.484375 1.140625 C 17.722656 2.179688 14.546875 4.234375 11.953125 7.296875 C 10.828125 8.785156 10.769531 10.085938 11.78125 11.203125 C 12.800781 12.316406 14.351562 13.257812 16.4375 14.03125 C 18.519531 14.8125 20.613281 15.421875 22.71875 15.859375 C 24.820312 16.296875 26.390625 16.59375 27.421875 16.75 C 27.628906 16.75 27.773438 16.769531 27.859375 16.8125 C 28.066406 16.8125 28.316406 16.835938 28.609375 16.890625 C 29.929688 17.179688 31.75 17.488281 34.0625 17.8125 C 36.375 18.144531 38.753906 18.367188 41.203125 18.484375 C 43.660156 18.609375 45.765625 18.445312 47.515625 18 C 49.273438 17.550781 50.265625 16.679688 50.484375 15.390625 C 50.710938 14.109375 49.738281 12.207031 47.5625 9.6875 C 45.238281 7.007812 42.78125 4.410156 40.1875 1.890625 C 33.75 -4.347656 27.140625 -10.394531 20.359375 -16.25 C 17.929688 -18.425781 15.503906 -20.609375 13.078125 -22.796875 C 9.015625 -26.441406 5.023438 -30.179688 1.109375 -34.015625 C -2.515625 -37.523438 -5.710938 -41.382812 -8.484375 -45.59375 C -10.460938 -48.65625 -11.84375 -51.957031 -12.625 -55.5 C -13.820312 -61.28125 -12.753906 -66.625 -9.421875 -71.53125 C -5.773438 -77.03125 -0.484375 -81.894531 6.453125 -86.125 C 13.390625 -90.363281 21.425781 -93.976562 30.5625 -96.96875 C 39.707031 -99.96875 49.445312 -102.394531 59.78125 -104.25 C 70.113281 -106.101562 80.554688 -107.414062 91.109375 -108.1875 C 101.660156 -108.96875 111.773438 -109.234375 121.453125 -108.984375 C 131.140625 -108.742188 139.90625 -108.015625 147.75 -106.796875 C 155.59375 -105.578125 162.023438 -103.898438 167.046875 -101.765625 C 169.703125 -100.734375 172.179688 -99.300781 174.484375 -97.46875 Z M 174.484375 -97.46875 "/></g></g></g><g fill="#e4dcd1" fill-opacity="1"><g transform="translate(95.789648, 229.921274)"><g><path d="M 27.421875 -15.734375 C 27.015625 -15.378906 26.585938 -15.054688 26.140625 -14.765625 C 24.703125 -13.859375 23.398438 -13.144531 22.234375 -12.625 C 21.078125 -12.113281 19.710938 -11.585938 18.140625 -11.046875 C 15.796875 -10.347656 14.289062 -10.503906 13.625 -11.515625 C 12.957031 -12.523438 12.851562 -13.929688 13.3125 -15.734375 C 13.9375 -18.304688 14.300781 -20.1875 14.40625 -21.375 C 14.507812 -22.570312 14.113281 -22.984375 13.21875 -22.609375 C 12.332031 -22.242188 10.71875 -21.015625 8.375 -18.921875 C 5.113281 -16.097656 2.320312 -12.875 0 -9.25 C -0.289062 -8.757812 -0.648438 -8.351562 -1.078125 -8.03125 C -1.503906 -7.71875 -2.035156 -7.5625 -2.671875 -7.5625 C -3.273438 -7.5625 -3.710938 -7.71875 -3.984375 -8.03125 C -4.253906 -8.351562 -4.265625 -8.785156 -4.015625 -9.328125 C -2.691406 -12.253906 -1.332031 -15.15625 0.0625 -18.03125 C 2.445312 -23.03125 4.800781 -28.007812 7.125 -32.96875 C 8.863281 -36.675781 10.578125 -40.390625 12.265625 -44.109375 C 13.296875 -46.296875 14.304688 -48.476562 15.296875 -50.65625 C 15.390625 -50.84375 15.492188 -51.035156 15.609375 -51.234375 C 15.691406 -51.484375 15.796875 -51.734375 15.921875 -51.984375 C 16.046875 -52.234375 16.1875 -52.503906 16.34375 -52.796875 C 16.476562 -53.035156 16.734375 -53.234375 17.109375 -53.390625 C 17.484375 -53.554688 17.851562 -53.660156 18.21875 -53.703125 C 18.59375 -53.742188 18.878906 -53.722656 19.078125 -53.640625 C 19.367188 -53.429688 19.53125 -53.210938 19.5625 -52.984375 C 19.601562 -52.765625 19.566406 -52.53125 19.453125 -52.28125 C 19.410156 -52.238281 19.390625 -52.160156 19.390625 -52.046875 C 18.941406 -50.722656 18.46875 -49.441406 17.96875 -48.203125 C 15.101562 -41.304688 11.984375 -34.515625 8.609375 -27.828125 C 8.359375 -27.378906 8.066406 -26.835938 7.734375 -26.203125 C 7.234375 -25.304688 6.769531 -24.425781 6.34375 -23.5625 C 5.914062 -22.695312 5.773438 -22.113281 5.921875 -21.8125 C 6.066406 -21.519531 6.738281 -21.75 7.9375 -22.5 C 8.300781 -22.738281 8.628906 -22.984375 8.921875 -23.234375 C 9.859375 -23.867188 10.789062 -24.46875 11.71875 -25.03125 C 12.53125 -25.570312 13.429688 -25.863281 14.421875 -25.90625 C 16.785156 -26.0625 18.113281 -24.992188 18.40625 -22.703125 C 18.519531 -21.773438 18.484375 -20.859375 18.296875 -19.953125 C 18.117188 -19.054688 17.910156 -18.171875 17.671875 -17.296875 C 17.617188 -17.046875 17.570312 -16.796875 17.53125 -16.546875 C 17.125 -15.015625 17.226562 -14.132812 17.84375 -13.90625 C 18.46875 -13.6875 19.335938 -13.8125 20.453125 -14.28125 C 21.566406 -14.757812 22.695312 -15.335938 23.84375 -16.015625 C 24.632812 -16.421875 25.328125 -16.769531 25.921875 -17.0625 C 26.515625 -17.351562 26.957031 -17.472656 27.25 -17.421875 C 27.789062 -17.335938 28.039062 -17.117188 28 -16.765625 C 27.957031 -16.421875 27.765625 -16.078125 27.421875 -15.734375 Z M 27.421875 -15.734375 "/></g></g></g><g fill="#e4dcd1" fill-opacity="1"><g transform="translate(131.933927, 229.921274)"><g><path d="M 0.84375 -5.984375 C -1.289062 -5.984375 -2.359375 -7.097656 -2.359375 -9.328125 C -2.359375 -12.046875 -0.59375 -16.851562 2.9375 -23.75 C 3.070312 -24.039062 3.320312 -24.1875 3.6875 -24.1875 C 5.101562 -24.1875 5.8125 -23.625 5.8125 -22.5 C 5.8125 -22.09375 5.6875 -21.597656 5.4375 -21.015625 C 5.34375 -20.847656 4.160156 -17.875 1.890625 -12.09375 C 1.523438 -11.144531 1.34375 -10.445312 1.34375 -10 C 1.34375 -9.5 1.570312 -9.25 2.03125 -9.25 C 3.664062 -9.25 7.976562 -13.335938 14.96875 -21.515625 C 15.863281 -22.617188 16.75 -23.171875 17.625 -23.171875 C 18.914062 -23.171875 19.5625 -22.695312 19.5625 -21.75 C 19.5625 -21.382812 19.164062 -20.023438 18.375 -17.671875 C 17.289062 -14.441406 16.75 -12.582031 16.75 -12.09375 C 16.75 -11.351562 17 -10.984375 17.5 -10.984375 C 18.738281 -10.984375 22.351562 -13.1875 28.34375 -17.59375 C 28.675781 -17.882812 28.96875 -18.03125 29.21875 -18.03125 C 29.78125 -18.03125 30.0625 -17.5625 30.0625 -16.625 C 30.0625 -16.375 29.984375 -16.171875 29.828125 -16.015625 C 26.648438 -13.285156 23.945312 -11.210938 21.71875 -9.796875 C 19.6875 -8.484375 17.882812 -7.828125 16.3125 -7.828125 L 15.84375 -7.828125 C 13.519531 -8.328125 12.359375 -10.144531 12.359375 -13.28125 C 9.878906 -11.09375 7.820312 -9.328125 6.1875 -7.984375 C 4.5625 -6.648438 2.78125 -5.984375 0.84375 -5.984375 Z M 0.84375 -5.984375 "/></g></g></g><g fill="#e4dcd1" fill-opacity="1"><g transform="translate(170.070731, 229.921274)"><g><path d="M 17.296875 -53.640625 C 17.410156 -53.816406 17.648438 -53.96875 18.015625 -54.09375 C 18.390625 -54.21875 18.773438 -54.304688 19.171875 -54.359375 C 19.566406 -54.421875 19.910156 -54.410156 20.203125 -54.328125 C 20.492188 -54.242188 20.613281 -54.101562 20.5625 -53.90625 C 20.320312 -52.875 19.953125 -51.859375 19.453125 -50.859375 C 19.410156 -50.722656 19.332031 -50.554688 19.21875 -50.359375 C 17.351562 -46.035156 15.453125 -41.742188 13.515625 -37.484375 C 13.222656 -36.859375 12.953125 -36.242188 12.703125 -35.640625 C 12.003906 -34.191406 11.132812 -32.429688 10.09375 -30.359375 C 8.945312 -28.179688 7.957031 -26.179688 7.125 -24.359375 C 7.914062 -25.296875 8.90625 -25.984375 10.09375 -26.421875 C 11.289062 -26.867188 12.203125 -27.09375 12.828125 -27.09375 C 15.222656 -27.039062 16.539062 -25.859375 16.78125 -23.546875 C 17.164062 -20.910156 16.691406 -18.226562 15.359375 -15.5 C 14.035156 -12.78125 12.28125 -10.550781 10.09375 -8.8125 C 8.25 -7.78125 6.5 -7.328125 4.84375 -7.453125 C 3.1875 -7.578125 1.71875 -8.378906 0.4375 -9.859375 C 0.28125 -9.859375 0.117188 -9.785156 -0.046875 -9.640625 C -0.210938 -9.492188 -0.398438 -9.320312 -0.609375 -9.125 C -0.859375 -8.832031 -1.128906 -8.601562 -1.421875 -8.4375 C -1.617188 -8.351562 -1.828125 -8.332031 -2.046875 -8.375 C -2.273438 -8.414062 -2.457031 -8.484375 -2.59375 -8.578125 C -3.09375 -8.984375 -3.253906 -9.476562 -3.078125 -10.0625 C -1.179688 -15.019531 1.039062 -20.175781 3.59375 -25.53125 C 6.15625 -30.894531 8.71875 -36.117188 11.28125 -41.203125 C 12.363281 -43.484375 13.429688 -45.691406 14.484375 -47.828125 C 14.910156 -48.660156 15.328125 -49.523438 15.734375 -50.421875 C 16.234375 -51.460938 16.753906 -52.535156 17.296875 -53.640625 Z M 8.8125 -23 C 7.082031 -21.757812 5.585938 -20.25 4.328125 -18.46875 C 3.066406 -16.695312 2.613281 -14.816406 2.96875 -12.828125 C 3.15625 -11.679688 3.617188 -10.867188 4.359375 -10.390625 C 5.097656 -9.921875 5.960938 -10.09375 6.953125 -10.90625 C 7.941406 -11.832031 8.929688 -12.992188 9.921875 -14.390625 C 10.921875 -15.785156 11.722656 -17.269531 12.328125 -18.84375 C 12.828125 -20.238281 13.125 -21.453125 13.21875 -22.484375 C 13.320312 -23.523438 13.046875 -24.15625 12.390625 -24.375 C 11.742188 -24.601562 10.550781 -24.144531 8.8125 -23 Z M 8.8125 -23 "/></g></g></g><g fill="#e4dcd1" fill-opacity="1"><g transform="translate(199.156769, 229.921274)"><g><path d="M 27.421875 -15.734375 C 27.015625 -15.378906 26.585938 -15.054688 26.140625 -14.765625 C 24.703125 -13.859375 23.398438 -13.144531 22.234375 -12.625 C 21.078125 -12.113281 19.710938 -11.585938 18.140625 -11.046875 C 15.796875 -10.347656 14.289062 -10.503906 13.625 -11.515625 C 12.957031 -12.523438 12.851562 -13.929688 13.3125 -15.734375 C 13.9375 -18.304688 14.300781 -20.1875 14.40625 -21.375 C 14.507812 -22.570312 14.113281 -22.984375 13.21875 -22.609375 C 12.332031 -22.242188 10.71875 -21.015625 8.375 -18.921875 C 5.113281 -16.097656 2.320312 -12.875 0 -9.25 C -0.289062 -8.757812 -0.648438 -8.351562 -1.078125 -8.03125 C -1.503906 -7.71875 -2.035156 -7.5625 -2.671875 -7.5625 C -3.273438 -7.5625 -3.710938 -7.71875 -3.984375 -8.03125 C -4.253906 -8.351562 -4.265625 -8.785156 -4.015625 -9.328125 C -2.691406 -12.253906 -1.332031 -15.15625 0.0625 -18.03125 C 2.445312 -23.03125 4.800781 -28.007812 7.125 -32.96875 C 8.863281 -36.675781 10.578125 -40.390625 12.265625 -44.109375 C 13.296875 -46.296875 14.304688 -48.476562 15.296875 -50.65625 C 15.390625 -50.84375 15.492188 -51.035156 15.609375 -51.234375 C 15.691406 -51.484375 15.796875 -51.734375 15.921875 -51.984375 C 16.046875 -52.234375 16.1875 -52.503906 16.34375 -52.796875 C 16.476562 -53.035156 16.734375 -53.234375 17.109375 -53.390625 C 17.484375 -53.554688 17.851562 -53.660156 18.21875 -53.703125 C 18.59375 -53.742188 18.878906 -53.722656 19.078125 -53.640625 C 19.367188 -53.429688 19.53125 -53.210938 19.5625 -52.984375 C 19.601562 -52.765625 19.566406 -52.53125 19.453125 -52.28125 C 19.410156 -52.238281 19.390625 -52.160156 19.390625 -52.046875 C 18.941406 -50.722656 18.46875 -49.441406 17.96875 -48.203125 C 15.101562 -41.304688 11.984375 -34.515625 8.609375 -27.828125 C 8.359375 -27.378906 8.066406 -26.835938 7.734375 -26.203125 C 7.234375 -25.304688 6.769531 -24.425781 6.34375 -23.5625 C 5.914062 -22.695312 5.773438 -22.113281 5.921875 -21.8125 C 6.066406 -21.519531 6.738281 -21.75 7.9375 -22.5 C 8.300781 -22.738281 8.628906 -22.984375 8.921875 -23.234375 C 9.859375 -23.867188 10.789062 -24.46875 11.71875 -25.03125 C 12.53125 -25.570312 13.429688 -25.863281 14.421875 -25.90625 C 16.785156 -26.0625 18.113281 -24.992188 18.40625 -22.703125 C 18.519531 -21.773438 18.484375 -20.859375 18.296875 -19.953125 C 18.117188 -19.054688 17.910156 -18.171875 17.671875 -17.296875 C 17.617188 -17.046875 17.570312 -16.796875 17.53125 -16.546875 C 17.125 -15.015625 17.226562 -14.132812 17.84375 -13.90625 C 18.46875 -13.6875 19.335938 -13.8125 20.453125 -14.28125 C 21.566406 -14.757812 22.695312 -15.335938 23.84375 -16.015625 C 24.632812 -16.421875 25.328125 -16.769531 25.921875 -17.0625 C 26.515625 -17.351562 26.957031 -17.472656 27.25 -17.421875 C 27.789062 -17.335938 28.039062 -17.117188 28 -16.765625 C 27.957031 -16.421875 27.765625 -16.078125 27.421875 -15.734375 Z M 27.421875 -15.734375 "/></g></g></g><g fill="#e4dcd1" fill-opacity="1"><g transform="translate(235.301054, 229.921274)"><g><path d="M 24.5 -17.203125 C 25.03125 -16.898438 25.070312 -16.164062 24.625 -15 C 23.96875 -14.144531 23.265625 -13.34375 22.515625 -12.59375 C 21.773438 -11.851562 20.96875 -11.191406 20.09375 -10.609375 C 20.03125 -10.609375 20 -10.582031 20 -10.53125 C 19.40625 -10.132812 18.785156 -9.785156 18.140625 -9.484375 C 12.753906 -7.554688 10.003906 -8.695312 9.890625 -12.90625 C 7.710938 -11.007812 6.25 -9.847656 5.5 -9.421875 C 3.726562 -8.359375 1.804688 -7.882812 -0.265625 -8 C -1.796875 -8.09375 -2.835938 -8.5625 -3.390625 -9.40625 C -3.941406 -10.25 -3.894531 -11.390625 -3.25 -12.828125 C -2.25 -15.109375 -0.835938 -17.140625 0.984375 -18.921875 C 3.117188 -20.898438 5.492188 -22.484375 8.109375 -23.671875 C 9.503906 -24.367188 10.96875 -24.640625 12.5 -24.484375 C 14.03125 -24.398438 14.953125 -23.535156 15.265625 -21.890625 C 15.398438 -21.390625 15.273438 -20.945312 14.890625 -20.5625 C 14.398438 -20.113281 13.828125 -20.015625 13.171875 -20.265625 C 13.128906 -20.265625 13.066406 -20.273438 12.984375 -20.296875 C 12.910156 -20.316406 12.847656 -20.351562 12.796875 -20.40625 C 12.148438 -21.300781 11.492188 -21.675781 10.828125 -21.53125 C 10.160156 -21.382812 9.457031 -21.085938 8.71875 -20.640625 C 5.25 -18.609375 2.671875 -15.78125 0.984375 -12.15625 C 0.890625 -12 0.832031 -11.820312 0.8125 -11.625 C 0.789062 -11.4375 0.847656 -11.285156 0.984375 -11.171875 C 1.390625 -11.046875 1.835938 -11.078125 2.328125 -11.265625 C 2.828125 -11.453125 3.320312 -11.734375 3.8125 -12.109375 C 4.3125 -12.484375 4.726562 -12.789062 5.0625 -13.03125 C 5.113281 -13.101562 5.140625 -13.140625 5.140625 -13.140625 C 6.773438 -14.515625 8.382812 -15.921875 9.96875 -17.359375 C 10.664062 -18.097656 11.53125 -18.515625 12.5625 -18.609375 C 14.050781 -18.609375 14.671875 -17.945312 14.421875 -16.625 C 14.285156 -16.125 14.140625 -15.625 13.984375 -15.125 C 13.398438 -12.988281 13.375 -11.734375 13.90625 -11.359375 C 14.445312 -10.992188 15.273438 -10.992188 16.390625 -11.359375 C 17.503906 -11.734375 18.617188 -12.441406 19.734375 -13.484375 C 20.847656 -14.535156 21.785156 -15.492188 22.546875 -16.359375 C 23.316406 -17.234375 23.96875 -17.515625 24.5 -17.203125 Z M 24.5 -17.203125 "/></g></g></g><g fill="#e4dcd1" fill-opacity="1"><g transform="translate(268.068188, 229.921274)"><g><path d="M 16.34375 -17.125 C 12.789062 -15.789062 10.222656 -14.707031 8.640625 -13.875 C 7.492188 -13.3125 6.835938 -12.84375 6.671875 -12.46875 C 6.503906 -12.101562 6.632812 -11.425781 7.0625 -10.4375 C 7.0625 -10.394531 7.09375 -10.328125 7.15625 -10.234375 C 7.65625 -9.035156 7.945312 -7.796875 8.03125 -6.515625 C 8.195312 -3.929688 6 -2.117188 1.4375 -1.078125 C -3.125 -0.046875 -6.175781 -0.015625 -7.71875 -0.984375 C -9.257812 -1.953125 -9.726562 -3.175781 -9.125 -4.65625 C -8.53125 -6.144531 -6.984375 -7.65625 -4.484375 -9.1875 C -1.992188 -10.71875 -0.328125 -11.820312 0.515625 -12.5 C 1.367188 -13.175781 1.625 -13.929688 1.28125 -14.765625 C 1.164062 -15.054688 1.039062 -15.347656 0.90625 -15.640625 C 0.613281 -16.335938 0.3125 -17.054688 0 -17.796875 C -0.582031 -19.148438 -0.832031 -20.476562 -0.75 -21.78125 C -0.675781 -23.09375 -0.195312 -24.191406 0.6875 -25.078125 C 1.582031 -25.960938 2.960938 -26.441406 4.828125 -26.515625 C 5.890625 -26.554688 6.835938 -26.414062 7.671875 -26.09375 C 8.503906 -25.769531 9.164062 -25.164062 9.65625 -24.28125 C 10.0625 -23.675781 9.9375 -23.125 9.28125 -22.625 C 8.851562 -22.289062 8.394531 -22.25 7.90625 -22.5 C 7.59375 -22.632812 7.285156 -22.820312 6.984375 -23.0625 C 6.984375 -23.132812 6.984375 -23.171875 6.984375 -23.171875 C 6.847656 -23.265625 6.726562 -23.351562 6.625 -23.4375 C 6.488281 -23.644531 6.34375 -23.800781 6.1875 -23.90625 C 5.59375 -24.332031 5 -24.460938 4.40625 -24.296875 C 3.8125 -24.128906 3.367188 -23.675781 3.078125 -22.9375 C 2.867188 -22.351562 2.765625 -21.753906 2.765625 -21.140625 C 2.816406 -20.398438 2.988281 -19.679688 3.28125 -18.984375 C 3.476562 -18.554688 3.65625 -18.160156 3.8125 -17.796875 C 4.195312 -16.804688 4.515625 -16.125 4.765625 -15.75 C 5.015625 -15.382812 5.3125 -15.226562 5.65625 -15.28125 C 6.007812 -15.34375 9.203125 -16.488281 15.234375 -18.71875 C 16.535156 -19.144531 16.90625 -18.613281 16.34375 -17.125 Z M 1.71875 -4.21875 C 3.300781 -4.757812 3.96875 -5.816406 3.71875 -7.390625 C 3.71875 -7.503906 3.691406 -7.628906 3.640625 -7.765625 C 3.554688 -8.617188 3.378906 -9.273438 3.109375 -9.734375 C 2.835938 -10.203125 2.226562 -10.1875 1.28125 -9.6875 C -1.0625 -8.363281 -3.222656 -6.8125 -5.203125 -5.03125 C -5.335938 -4.875 -5.460938 -4.726562 -5.578125 -4.59375 C -5.578125 -4.59375 -5.597656 -4.554688 -5.640625 -4.484375 C -5.773438 -4.304688 -5.796875 -4.101562 -5.703125 -3.875 C -5.617188 -3.65625 -5.414062 -3.546875 -5.09375 -3.546875 C -2.78125 -3.179688 -0.507812 -3.40625 1.71875 -4.21875 Z M 1.71875 -4.21875 "/></g></g></g><g fill="#e4dcd1" fill-opacity="1"><g transform="translate(293.405588, 229.921274)"><g><path d="M 24.5 -17.203125 C 25.03125 -16.898438 25.070312 -16.164062 24.625 -15 C 23.96875 -14.144531 23.265625 -13.34375 22.515625 -12.59375 C 21.773438 -11.851562 20.96875 -11.191406 20.09375 -10.609375 C 20.03125 -10.609375 20 -10.582031 20 -10.53125 C 19.40625 -10.132812 18.785156 -9.785156 18.140625 -9.484375 C 12.753906 -7.554688 10.003906 -8.695312 9.890625 -12.90625 C 7.710938 -11.007812 6.25 -9.847656 5.5 -9.421875 C 3.726562 -8.359375 1.804688 -7.882812 -0.265625 -8 C -1.796875 -8.09375 -2.835938 -8.5625 -3.390625 -9.40625 C -3.941406 -10.25 -3.894531 -11.390625 -3.25 -12.828125 C -2.25 -15.109375 -0.835938 -17.140625 0.984375 -18.921875 C 3.117188 -20.898438 5.492188 -22.484375 8.109375 -23.671875 C 9.503906 -24.367188 10.96875 -24.640625 12.5 -24.484375 C 14.03125 -24.398438 14.953125 -23.535156 15.265625 -21.890625 C 15.398438 -21.390625 15.273438 -20.945312 14.890625 -20.5625 C 14.398438 -20.113281 13.828125 -20.015625 13.171875 -20.265625 C 13.128906 -20.265625 13.066406 -20.273438 12.984375 -20.296875 C 12.910156 -20.316406 12.847656 -20.351562 12.796875 -20.40625 C 12.148438 -21.300781 11.492188 -21.675781 10.828125 -21.53125 C 10.160156 -21.382812 9.457031 -21.085938 8.71875 -20.640625 C 5.25 -18.609375 2.671875 -15.78125 0.984375 -12.15625 C 0.890625 -12 0.832031 -11.820312 0.8125 -11.625 C 0.789062 -11.4375 0.847656 -11.285156 0.984375 -11.171875 C 1.390625 -11.046875 1.835938 -11.078125 2.328125 -11.265625 C 2.828125 -11.453125 3.320312 -11.734375 3.8125 -12.109375 C 4.3125 -12.484375 4.726562 -12.789062 5.0625 -13.03125 C 5.113281 -13.101562 5.140625 -13.140625 5.140625 -13.140625 C 6.773438 -14.515625 8.382812 -15.921875 9.96875 -17.359375 C 10.664062 -18.097656 11.53125 -18.515625 12.5625 -18.609375 C 14.050781 -18.609375 14.671875 -17.945312 14.421875 -16.625 C 14.285156 -16.125 14.140625 -15.625 13.984375 -15.125 C 13.398438 -12.988281 13.375 -11.734375 13.90625 -11.359375 C 14.445312 -10.992188 15.273438 -10.992188 16.390625 -11.359375 C 17.503906 -11.734375 18.617188 -12.441406 19.734375 -13.484375 C 20.847656 -14.535156 21.785156 -15.492188 22.546875 -16.359375 C 23.316406 -17.234375 23.96875 -17.515625 24.5 -17.203125 Z M 24.5 -17.203125 "/></g></g></g><g fill="#e4dcd1" fill-opacity="1"><g transform="translate(326.172722, 229.921274)"><g><path d="M 13.421875 -14.234375 C 12.222656 -12.804688 10.800781 -11.492188 9.15625 -10.296875 C 7.507812 -9.109375 5.648438 -8.304688 3.578125 -7.890625 C 1.503906 -7.472656 -0.101562 -7.625 -1.25 -8.34375 C -2.394531 -9.0625 -2.617188 -10.660156 -1.921875 -13.140625 C -1.023438 -15.703125 0.210938 -18.144531 1.796875 -20.46875 C 2.148438 -20.957031 2.664062 -21.304688 3.34375 -21.515625 C 3.84375 -21.628906 4.273438 -21.546875 4.640625 -21.265625 C 5.015625 -20.984375 5.15625 -20.628906 5.0625 -20.203125 C 4.726562 -19.390625 4.359375 -18.578125 3.953125 -17.765625 C 3.546875 -16.953125 3.273438 -16.421875 3.140625 -16.171875 C 2.347656 -14.734375 1.796875 -13.226562 1.484375 -11.65625 C 1.484375 -10.75 2.6875 -10.691406 5.09375 -11.484375 C 7.507812 -12.273438 9.851562 -13.722656 12.125 -15.828125 C 14.394531 -17.929688 15.476562 -18.546875 15.375 -17.671875 C 15.28125 -16.804688 14.628906 -15.660156 13.421875 -14.234375 Z M 7.53125 -25.53125 C 7.414062 -25.445312 7.179688 -25.34375 6.828125 -25.21875 C 6.484375 -25.09375 6.113281 -25 5.71875 -24.9375 C 5.332031 -24.882812 5.023438 -24.945312 4.796875 -25.125 C 4.566406 -25.3125 4.554688 -25.671875 4.765625 -26.203125 C 5.117188 -27.148438 5.492188 -27.976562 5.890625 -28.6875 C 6.285156 -29.394531 6.800781 -30.179688 7.4375 -31.046875 C 7.832031 -31.421875 8.265625 -31.625 8.734375 -31.65625 C 9.210938 -31.695312 9.609375 -31.578125 9.921875 -31.296875 C 10.242188 -31.015625 10.335938 -30.625 10.203125 -30.125 C 9.703125 -28.34375 8.8125 -26.8125 7.53125 -25.53125 Z M 7.53125 -25.53125 "/></g></g></g><path stroke-linecap="butt" transform="matrix(0.751014, -0.00454413, 0.00453791, 0.749986, 127.07487, 233.839012)" fill="none" stroke-linejoin="miter" d="M -0.00255581 2.00113 L 330.550425 1.99869 " stroke="#ffffff" stroke-width="4" stroke-opacity="1" stroke-miterlimit="4"/></svg>