<svg xmlns="http://www.w3.org/2000/svg" xmlns:xlink="http://www.w3.org/1999/xlink" width="500" zoomAndPan="magnify" viewBox="0 0 375 374.999991" height="500" preserveAspectRatio="xMidYMid meet" version="1.0"><defs><clipPath id="acb41ca8b7"><path d="M 318 163 L 354.65625 163 L 354.65625 172 L 318 172 Z M 318 163 " clip-rule="nonzero"/></clipPath><clipPath id="64e1b08dc4"><path d="M 20.15625 163 L 57 163 L 57 172 L 20.15625 172 Z M 20.15625 163 " clip-rule="nonzero"/></clipPath></defs><path fill="#224c8d" d="M 170.621094 98.609375 C 175.390625 98.609375 179.820312 100.132812 183.449219 102.71875 C 187.167969 105.375 190.039062 109.144531 191.550781 113.539062 L 191.554688 113.539062 C 191.730469 114.050781 191.808594 114.570312 191.792969 115.082031 L 191.792969 220.113281 C 191.792969 220.972656 191.546875 221.773438 191.121094 222.449219 C 189.132812 226.097656 186.207031 229.15625 182.667969 231.292969 C 179.148438 233.417969 175.023438 234.644531 170.621094 234.644531 C 166.109375 234.644531 161.871094 233.335938 158.265625 231.078125 C 155.25 229.191406 152.695312 226.636719 150.8125 223.625 C 145.75 222.695312 141.257812 220.128906 137.90625 216.496094 C 134.058594 212.332031 131.707031 206.765625 131.707031 200.660156 C 131.707031 199.964844 131.746094 199.238281 131.816406 198.492188 C 129.535156 196.621094 127.613281 194.328125 126.171875 191.726562 C 124.300781 188.355469 123.238281 184.496094 123.238281 180.410156 C 123.238281 177.582031 123.746094 174.855469 124.679688 172.328125 C 125.230469 170.832031 125.933594 169.40625 126.769531 168.070312 C 125.949219 166.742188 125.257812 165.328125 124.714844 163.847656 C 123.789062 161.328125 123.285156 158.613281 123.285156 155.800781 C 123.285156 152.773438 123.863281 149.875 124.914062 147.214844 C 125.566406 145.566406 126.40625 144 127.410156 142.554688 C 126.746094 141.351562 126.183594 140.089844 125.738281 138.78125 C 124.9375 136.410156 124.5 133.882812 124.5 131.277344 C 124.5 124.835938 127.113281 119 131.335938 114.773438 L 134.4375 117.859375 L 131.335938 114.757812 L 131.417969 114.675781 C 135.636719 110.496094 141.441406 107.914062 147.84375 107.914062 C 149.25 107.914062 150.628906 108.039062 151.964844 108.277344 L 151.824219 109.074219 L 151.96875 108.277344 C 152.078125 108.296875 152.1875 108.324219 152.296875 108.351562 C 153.964844 105.890625 156.117188 103.785156 158.613281 102.167969 C 162.089844 99.917969 166.214844 98.609375 170.621094 98.609375 Z M 178.375 109.855469 C 176.199219 108.304688 173.523438 107.390625 170.621094 107.390625 C 167.933594 107.390625 165.449219 108.167969 163.378906 109.507812 C 161.28125 110.863281 159.585938 112.796875 158.511719 115.089844 C 157.640625 117.308594 155.152344 118.429688 152.90625 117.597656 L 152.90625 117.589844 C 152.183594 117.324219 151.464844 117.113281 150.753906 116.96875 C 150.644531 116.957031 150.535156 116.941406 150.421875 116.921875 C 149.585938 116.773438 148.726562 116.695312 147.84375 116.695312 C 143.835938 116.695312 140.199219 118.316406 137.566406 120.941406 L 137.542969 120.964844 L 137.535156 120.957031 C 134.902344 123.59375 133.273438 127.242188 133.273438 131.273438 C 133.273438 132.933594 133.542969 134.515625 134.035156 135.96875 C 134.523438 137.402344 135.222656 138.734375 136.089844 139.914062 C 137.578125 141.59375 137.566406 144.160156 136.003906 145.828125 L 132.804688 142.824219 L 135.992188 145.824219 C 134.757812 147.140625 133.757812 148.703125 133.074219 150.4375 C 132.417969 152.09375 132.058594 153.902344 132.058594 155.800781 C 132.058594 157.578125 132.371094 159.273438 132.941406 160.828125 C 133.511719 162.375 134.332031 163.800781 135.355469 165.046875 C 136.890625 166.660156 136.988281 169.203125 135.511719 170.929688 L 135.503906 170.921875 C 134.394531 172.214844 133.511719 173.714844 132.90625 175.347656 C 132.328125 176.914062 132.011719 178.621094 132.011719 180.410156 C 132.011719 182.992188 132.667969 185.402344 133.816406 187.472656 C 134.980469 189.574219 136.65625 191.359375 138.675781 192.667969 C 140.335938 193.582031 141.269531 195.519531 140.835938 197.464844 L 140.820312 197.460938 C 140.726562 197.871094 140.652344 198.3125 140.59375 198.789062 L 140.570312 199.054688 L 140.5625 199.054688 C 140.511719 199.53125 140.484375 200.066406 140.484375 200.660156 C 140.484375 204.484375 141.953125 207.964844 144.351562 210.5625 C 146.726562 213.132812 150.019531 214.847656 153.707031 215.183594 C 155.28125 215.234375 156.773438 216.136719 157.511719 217.648438 L 153.566406 219.570312 L 157.507812 217.667969 C 158.710938 220.144531 160.589844 222.226562 162.894531 223.671875 C 165.109375 225.058594 167.757812 225.863281 170.621094 225.863281 C 173.382812 225.863281 175.957031 225.101562 178.144531 223.78125 C 180.128906 222.582031 181.800781 220.929688 183.019531 218.96875 L 183.019531 115.75 C 182.058594 113.363281 180.429688 111.320312 178.375 109.855469 Z M 178.375 109.855469 " fill-opacity="1" fill-rule="nonzero"/><path fill="#224c8d" d="M 162.535156 115.707031 C 160.167969 116.199219 158.648438 118.519531 159.140625 120.886719 C 159.632812 123.253906 161.953125 124.773438 164.316406 124.28125 C 164.507812 124.242188 164.695312 124.210938 164.875 124.191406 C 164.988281 124.179688 165.183594 124.175781 165.445312 124.175781 C 166.945312 124.175781 168.308594 124.785156 169.292969 125.769531 C 169.351562 125.828125 169.410156 125.886719 169.472656 125.941406 C 170.351562 126.898438 170.886719 128.191406 170.886719 129.621094 C 170.886719 132.042969 172.851562 134.011719 175.273438 134.011719 C 177.699219 134.011719 179.664062 132.042969 179.664062 129.621094 C 179.664062 125.851562 178.183594 122.414062 175.769531 119.859375 C 175.683594 119.757812 175.59375 119.65625 175.496094 119.5625 C 172.925781 116.988281 169.371094 115.394531 165.445312 115.394531 C 165.027344 115.394531 164.539062 115.421875 163.984375 115.480469 C 163.488281 115.53125 163.003906 115.609375 162.535156 115.707031 Z M 162.535156 115.707031 " fill-opacity="1" fill-rule="nonzero"/><path fill="#224c8d" d="M 156.753906 151.695312 C 159.121094 152.1875 161.4375 150.667969 161.929688 148.300781 C 162.421875 145.933594 160.902344 143.613281 158.535156 143.121094 C 158.066406 143.023438 157.582031 142.945312 157.089844 142.894531 C 156.53125 142.835938 156.042969 142.808594 155.628906 142.808594 C 151.722656 142.808594 148.171875 144.402344 145.589844 146.976562 L 145.582031 146.984375 L 145.574219 146.976562 C 145.476562 147.070312 145.386719 147.171875 145.300781 147.273438 C 142.886719 149.832031 141.410156 153.265625 141.410156 157.035156 C 141.410156 159.460938 143.375 161.425781 145.796875 161.425781 C 148.21875 161.425781 150.183594 159.460938 150.183594 157.035156 C 150.183594 155.605469 150.722656 154.3125 151.601562 153.351562 C 151.660156 153.300781 151.722656 153.242188 151.78125 153.183594 L 148.675781 150.078125 L 151.777344 153.167969 C 152.753906 152.191406 154.113281 151.589844 155.628906 151.589844 C 155.890625 151.589844 156.082031 151.59375 156.195312 151.605469 C 156.375 151.625 156.5625 151.65625 156.753906 151.695312 Z M 156.753906 151.695312 " fill-opacity="1" fill-rule="nonzero"/><path fill="#224c8d" d="M 147.511719 191.167969 C 149.875 191.660156 152.195312 190.140625 152.6875 187.773438 C 153.175781 185.40625 151.660156 183.085938 149.292969 182.59375 C 148.820312 182.496094 148.335938 182.421875 147.84375 182.371094 C 147.285156 182.3125 146.800781 182.28125 146.382812 182.28125 C 142.472656 182.28125 138.917969 183.878906 136.339844 186.457031 L 136.328125 186.449219 L 136.328125 186.453125 C 133.757812 189.027344 132.164062 192.582031 132.164062 196.507812 C 132.164062 198.933594 134.128906 200.898438 136.550781 200.898438 C 138.976562 200.898438 140.941406 198.933594 140.941406 196.507812 C 140.941406 195.007812 141.550781 193.644531 142.535156 192.660156 L 142.535156 192.65625 L 139.433594 189.554688 L 142.535156 192.640625 C 143.507812 191.667969 144.871094 191.0625 146.382812 191.0625 C 146.644531 191.0625 146.835938 191.070312 146.953125 191.082031 C 147.128906 191.097656 147.320312 191.128906 147.507812 191.167969 Z M 147.511719 191.167969 " fill-opacity="1" fill-rule="nonzero"/><path fill="#224c8d" d="M 164.523438 214.230469 C 166.886719 214.722656 169.207031 213.203125 169.699219 210.835938 C 170.191406 208.46875 168.671875 206.148438 166.304688 205.65625 C 165.835938 205.558594 165.351562 205.480469 164.855469 205.429688 C 164.300781 205.375 163.8125 205.34375 163.394531 205.34375 C 159.488281 205.34375 155.929688 206.941406 153.351562 209.519531 L 153.339844 209.511719 C 150.769531 212.085938 149.175781 215.644531 149.175781 219.570312 C 149.175781 221.996094 151.140625 223.960938 153.566406 223.960938 C 155.988281 223.960938 157.953125 221.996094 157.953125 219.570312 C 157.953125 218.066406 158.5625 216.707031 159.546875 215.71875 L 156.445312 212.617188 L 159.546875 215.703125 C 160.519531 214.726562 161.882812 214.125 163.394531 214.125 C 163.65625 214.125 163.851562 214.128906 163.964844 214.144531 C 164.144531 214.160156 164.332031 214.191406 164.523438 214.230469 Z M 164.523438 214.230469 " fill-opacity="1" fill-rule="nonzero"/><path fill="#224c8d" d="M 172.117188 183.292969 C 172.238281 185.707031 174.296875 187.566406 176.710938 187.441406 C 179.125 187.320312 180.980469 185.261719 180.859375 182.847656 C 180.832031 182.363281 180.777344 181.867188 180.699219 181.371094 C 180.613281 180.835938 180.515625 180.351562 180.402344 179.933594 C 179.390625 176.152344 176.925781 173.128906 173.765625 171.300781 C 170.613281 169.480469 166.773438 168.859375 162.996094 169.875 C 160.660156 170.5 159.269531 172.902344 159.894531 175.242188 C 160.519531 177.582031 162.921875 178.96875 165.257812 178.34375 C 166.726562 177.953125 168.207031 178.1875 169.410156 178.882812 C 170.605469 179.570312 171.542969 180.734375 171.933594 182.195312 C 171.996094 182.429688 172.039062 182.613281 172.058594 182.746094 C 172.085938 182.914062 172.109375 183.101562 172.117188 183.292969 Z M 172.117188 183.292969 " fill-opacity="1" fill-rule="nonzero"/><path fill="#224c8d" d="M 210.496094 124.28125 C 212.859375 124.773438 215.179688 123.253906 215.671875 120.886719 C 216.164062 118.519531 214.644531 116.199219 212.277344 115.707031 C 211.808594 115.609375 211.324219 115.53125 210.828125 115.480469 C 210.273438 115.421875 209.785156 115.394531 209.367188 115.394531 C 205.441406 115.394531 201.886719 116.988281 199.316406 119.5625 C 199.21875 119.65625 199.128906 119.757812 199.042969 119.859375 C 196.628906 122.414062 195.148438 125.851562 195.148438 129.621094 C 195.148438 132.042969 197.113281 134.011719 199.539062 134.011719 C 201.960938 134.011719 203.925781 132.042969 203.925781 129.621094 C 203.925781 128.191406 204.460938 126.898438 205.339844 125.941406 C 205.402344 125.886719 205.460938 125.828125 205.519531 125.769531 C 206.503906 124.785156 207.867188 124.175781 209.367188 124.175781 C 209.628906 124.175781 209.824219 124.179688 209.9375 124.191406 C 210.117188 124.210938 210.304688 124.242188 210.496094 124.28125 Z M 210.496094 124.28125 " fill-opacity="1" fill-rule="nonzero"/><path fill="#224c8d" d="M 216.273438 143.121094 C 213.910156 143.613281 212.390625 145.933594 212.882812 148.300781 C 213.375 150.667969 215.691406 152.1875 218.058594 151.695312 C 218.25 151.65625 218.4375 151.625 218.617188 151.605469 C 218.730469 151.59375 218.921875 151.589844 219.183594 151.589844 C 220.699219 151.589844 222.058594 152.191406 223.035156 153.167969 L 226.136719 150.078125 L 223.03125 153.183594 C 223.089844 153.242188 223.152344 153.296875 223.210938 153.351562 C 224.089844 154.3125 224.628906 155.605469 224.628906 157.035156 C 224.628906 159.460938 226.59375 161.425781 229.015625 161.425781 C 231.4375 161.425781 233.402344 159.460938 233.402344 157.035156 C 233.402344 153.265625 231.925781 149.832031 229.511719 147.273438 C 229.425781 147.171875 229.335938 147.070312 229.238281 146.976562 L 229.230469 146.984375 L 229.222656 146.976562 C 226.640625 144.402344 223.089844 142.808594 219.183594 142.808594 C 218.769531 142.808594 218.28125 142.835938 217.722656 142.894531 C 217.230469 142.945312 216.746094 143.023438 216.273438 143.121094 Z M 216.273438 143.121094 " fill-opacity="1" fill-rule="nonzero"/><path fill="#224c8d" d="M 225.519531 182.59375 C 223.152344 183.085938 221.632812 185.40625 222.125 187.773438 C 222.617188 190.140625 224.9375 191.660156 227.300781 191.167969 C 227.492188 191.128906 227.683594 191.097656 227.859375 191.082031 C 227.972656 191.070312 228.167969 191.0625 228.429688 191.0625 C 229.941406 191.0625 231.304688 191.667969 232.277344 192.640625 L 235.378906 189.554688 L 232.277344 192.65625 L 232.277344 192.660156 C 233.261719 193.644531 233.871094 195.007812 233.871094 196.507812 C 233.871094 198.933594 235.835938 200.898438 238.261719 200.898438 C 240.683594 200.898438 242.648438 198.933594 242.648438 196.507812 C 242.648438 192.582031 241.054688 189.023438 238.484375 186.453125 L 238.484375 186.449219 L 238.472656 186.457031 C 235.894531 183.878906 232.339844 182.28125 228.429688 182.28125 C 228.011719 182.28125 227.527344 182.3125 226.96875 182.371094 C 226.476562 182.421875 225.992188 182.496094 225.519531 182.59375 Z M 225.519531 182.59375 " fill-opacity="1" fill-rule="nonzero"/><path fill="#224c8d" d="M 208.507812 205.65625 C 206.140625 206.148438 204.621094 208.46875 205.113281 210.835938 C 205.605469 213.203125 207.925781 214.722656 210.289062 214.230469 C 210.480469 214.191406 210.667969 214.160156 210.847656 214.144531 C 210.960938 214.128906 211.15625 214.125 211.417969 214.125 C 212.929688 214.125 214.292969 214.726562 215.265625 215.703125 L 218.367188 212.617188 L 215.265625 215.71875 C 216.25 216.707031 216.859375 218.066406 216.859375 219.570312 C 216.859375 221.996094 218.824219 223.960938 221.246094 223.960938 C 223.671875 223.960938 225.636719 221.996094 225.636719 219.570312 C 225.636719 215.644531 224.042969 212.085938 221.472656 209.511719 L 221.46875 209.511719 L 221.460938 209.519531 C 218.882812 206.941406 215.324219 205.34375 211.417969 205.34375 C 211 205.34375 210.511719 205.375 209.957031 205.429688 C 209.460938 205.480469 208.976562 205.558594 208.507812 205.65625 Z M 208.507812 205.65625 " fill-opacity="1" fill-rule="nonzero"/><path fill="#224c8d" d="M 193.953125 182.847656 C 193.832031 185.261719 195.6875 187.320312 198.101562 187.441406 C 200.515625 187.566406 202.570312 185.707031 202.695312 183.292969 C 202.703125 183.101562 202.726562 182.917969 202.75 182.746094 C 202.773438 182.613281 202.816406 182.429688 202.878906 182.195312 C 203.269531 180.734375 204.207031 179.574219 205.402344 178.882812 C 206.605469 178.1875 208.085938 177.953125 209.554688 178.34375 C 211.890625 178.96875 214.292969 177.582031 214.917969 175.242188 C 215.542969 172.902344 214.152344 170.5 211.816406 169.875 C 208.039062 168.859375 204.199219 169.484375 201.046875 171.300781 C 197.886719 173.128906 195.421875 176.152344 194.410156 179.933594 C 194.296875 180.351562 194.199219 180.835938 194.113281 181.371094 C 194.03125 181.867188 193.980469 182.363281 193.953125 182.847656 Z M 193.953125 182.847656 " fill-opacity="1" fill-rule="nonzero"/><path fill="#224c8d" d="M 138.371094 283.359375 C 138.371094 285.785156 140.335938 287.75 142.761719 287.75 C 145.183594 287.75 147.148438 285.785156 147.148438 283.359375 C 147.148438 238.261719 134.019531 224.648438 121.429688 211.59375 C 111.019531 200.804688 101.019531 190.4375 101.019531 158.324219 C 101.019531 134.453125 110.691406 112.84375 126.324219 97.207031 C 141.953125 81.566406 163.550781 71.890625 187.40625 71.890625 C 211.261719 71.890625 232.859375 81.566406 248.488281 97.207031 C 264.121094 112.84375 273.792969 134.453125 273.792969 158.324219 C 273.792969 190.4375 263.792969 200.804688 253.382812 211.597656 C 240.792969 224.648438 227.664062 238.261719 227.664062 283.359375 C 227.664062 285.785156 229.628906 287.75 232.050781 287.75 C 234.476562 287.75 236.441406 285.785156 236.441406 283.359375 C 236.441406 241.769531 248.308594 229.464844 259.691406 217.667969 C 271.359375 205.570312 282.566406 193.945312 282.566406 158.324219 C 282.566406 132.03125 271.914062 108.226562 254.695312 90.996094 C 237.476562 73.765625 213.683594 63.109375 187.40625 63.109375 C 161.128906 63.109375 137.335938 73.765625 120.117188 90.996094 C 102.898438 108.226562 92.246094 132.03125 92.246094 158.324219 C 92.246094 193.945312 103.453125 205.570312 115.121094 217.664062 C 126.503906 229.464844 138.371094 241.769531 138.371094 283.359375 Z M 138.371094 283.359375 " fill-opacity="1" fill-rule="nonzero"/><path fill="#224c8d" d="M 144.210938 310.742188 C 146.632812 310.742188 148.597656 308.777344 148.597656 306.351562 C 148.597656 303.925781 146.632812 301.960938 144.210938 301.960938 C 142.261719 301.960938 140.488281 301.160156 139.199219 299.871094 C 137.910156 298.582031 137.109375 296.804688 137.109375 294.855469 C 137.109375 292.90625 137.910156 291.128906 139.199219 289.839844 C 140.488281 288.550781 142.261719 287.75 144.210938 287.75 L 230.601562 287.75 C 232.546875 287.75 234.324219 288.550781 235.613281 289.839844 C 236.902344 291.128906 237.703125 292.90625 237.703125 294.855469 C 237.703125 296.804688 236.902344 298.582031 235.613281 299.871094 C 234.324219 301.160156 232.546875 301.960938 230.601562 301.960938 C 228.179688 301.960938 226.214844 303.925781 226.214844 306.351562 C 226.214844 308.777344 228.179688 310.742188 230.601562 310.742188 C 234.972656 310.742188 238.941406 308.957031 241.820312 306.078125 C 244.695312 303.203125 246.476562 299.230469 246.476562 294.855469 C 246.476562 290.480469 244.695312 286.507812 241.820312 283.632812 C 238.941406 280.753906 234.972656 278.96875 230.601562 278.96875 L 144.210938 278.96875 C 139.839844 278.96875 135.871094 280.753906 132.996094 283.632812 C 130.117188 286.507812 128.335938 290.480469 128.335938 294.855469 C 128.335938 299.230469 130.117188 303.203125 132.996094 306.078125 C 135.871094 308.957031 139.839844 310.742188 144.210938 310.742188 Z M 144.210938 310.742188 " fill-opacity="1" fill-rule="nonzero"/><path fill="#224c8d" d="M 146.058594 333.734375 C 148.484375 333.734375 150.449219 331.765625 150.449219 329.34375 C 150.449219 326.917969 148.484375 324.953125 146.058594 324.953125 L 136.3125 324.953125 C 134.363281 324.953125 132.589844 324.152344 131.300781 322.863281 C 130.011719 321.570312 129.210938 319.796875 129.210938 317.847656 C 129.210938 315.898438 130.011719 314.121094 131.300781 312.832031 C 132.589844 311.542969 134.363281 310.742188 136.3125 310.742188 L 238.5 310.742188 C 240.449219 310.742188 242.222656 311.542969 243.511719 312.832031 C 244.800781 314.121094 245.601562 315.898438 245.601562 317.847656 C 245.601562 319.796875 244.800781 321.570312 243.511719 322.863281 L 243.335938 323.050781 C 242.070312 324.226562 240.371094 324.953125 238.5 324.953125 L 228.757812 324.953125 C 226.335938 324.953125 224.371094 326.917969 224.371094 329.34375 C 224.371094 331.765625 226.335938 333.734375 228.757812 333.734375 L 238.5 333.734375 C 242.714844 333.734375 246.566406 332.054688 249.425781 329.335938 C 249.523438 329.253906 249.621094 329.164062 249.714844 329.070312 C 252.589844 326.195312 254.378906 322.21875 254.378906 317.847656 C 254.378906 313.472656 252.59375 309.5 249.71875 306.625 C 246.839844 303.746094 242.871094 301.960938 238.5 301.960938 L 136.3125 301.960938 C 131.941406 301.960938 127.972656 303.746094 125.09375 306.625 C 122.21875 309.5 120.433594 313.472656 120.433594 317.847656 C 120.433594 322.21875 122.21875 326.191406 125.09375 329.070312 C 127.96875 331.945312 131.941406 333.734375 136.3125 333.734375 Z M 146.058594 333.734375 " fill-opacity="1" fill-rule="nonzero"/><path fill="#224c8d" d="M 146.410156 324.953125 L 228.402344 324.953125 C 232.773438 324.953125 236.746094 326.738281 239.621094 329.617188 C 242.496094 332.492188 244.28125 336.464844 244.28125 340.839844 C 244.28125 345.210938 242.496094 349.183594 239.621094 352.0625 C 236.746094 354.9375 232.773438 356.726562 228.402344 356.726562 L 146.410156 356.726562 C 142.039062 356.726562 138.066406 354.9375 135.191406 352.0625 C 132.316406 349.183594 130.53125 345.210938 130.53125 340.839844 C 130.53125 336.464844 132.316406 332.492188 135.191406 329.617188 C 138.066406 326.738281 142.039062 324.953125 146.410156 324.953125 Z M 228.402344 333.734375 L 146.410156 333.734375 C 144.460938 333.734375 142.6875 334.535156 141.398438 335.824219 C 140.109375 337.113281 139.308594 338.890625 139.308594 340.839844 C 139.308594 342.789062 140.109375 344.5625 141.398438 345.855469 C 142.6875 347.144531 144.460938 347.945312 146.410156 347.945312 L 228.402344 347.945312 C 230.351562 347.945312 232.125 347.144531 233.414062 345.855469 C 234.703125 344.5625 235.503906 342.789062 235.503906 340.839844 C 235.503906 338.890625 234.703125 337.113281 233.414062 335.824219 C 232.125 334.535156 230.351562 333.734375 228.402344 333.734375 Z M 228.402344 333.734375 " fill-opacity="1" fill-rule="nonzero"/><path fill="#224c8d" d="M 215 352.335938 C 215 349.910156 213.035156 347.945312 210.609375 347.945312 C 208.1875 347.945312 206.222656 349.910156 206.222656 352.335938 L 206.222656 361.382812 C 206.222656 362.667969 205.703125 363.832031 204.871094 364.667969 L 207.953125 367.773438 L 204.851562 364.667969 L 204.6875 364.84375 C 203.867188 365.585938 202.773438 366.039062 201.570312 366.039062 L 173.242188 366.039062 C 171.96875 366.039062 170.804688 365.511719 169.957031 364.667969 C 169.113281 363.824219 168.589844 362.65625 168.589844 361.382812 L 168.589844 352.335938 C 168.589844 349.910156 166.625 347.945312 164.199219 347.945312 C 161.777344 347.945312 159.8125 349.910156 159.8125 352.335938 L 159.8125 361.382812 C 159.8125 365.082031 161.324219 368.445312 163.753906 370.875 C 166.183594 373.308594 169.542969 374.820312 173.242188 374.820312 L 201.570312 374.820312 C 205.109375 374.820312 208.347656 373.421875 210.761719 371.148438 C 210.863281 371.0625 210.960938 370.972656 211.054688 370.878906 L 211.046875 370.867188 L 211.058594 370.859375 C 213.488281 368.417969 215 365.0625 215 361.382812 Z M 215 352.335938 " fill-opacity="1" fill-rule="nonzero"/><path fill="#224c8d" d="M 183.019531 283.359375 C 183.019531 285.785156 184.984375 287.75 187.40625 287.75 C 189.828125 287.75 191.792969 285.785156 191.792969 283.359375 L 191.792969 220.113281 C 191.792969 217.691406 189.828125 215.722656 187.40625 215.722656 C 184.984375 215.722656 183.019531 217.691406 183.019531 220.113281 Z M 183.019531 283.359375 " fill-opacity="1" fill-rule="nonzero"/><path fill="#224c8d" d="M 191.792969 4.570312 C 191.792969 2.148438 189.828125 0.179688 187.40625 0.179688 C 184.984375 0.179688 183.019531 2.148438 183.019531 4.570312 L 183.019531 32.007812 C 183.019531 34.433594 184.984375 36.398438 187.40625 36.398438 C 189.828125 36.398438 191.792969 34.433594 191.792969 32.007812 Z M 191.792969 4.570312 " fill-opacity="1" fill-rule="nonzero"/><path fill="#224c8d" d="M 272.632812 28.597656 C 273.84375 26.507812 273.132812 23.824219 271.039062 22.613281 C 268.949219 21.402344 266.269531 22.117188 265.058594 24.207031 L 251.347656 47.972656 C 250.136719 50.0625 250.847656 52.746094 252.941406 53.957031 C 255.03125 55.167969 257.710938 54.453125 258.921875 52.363281 Z M 272.632812 28.597656 " fill-opacity="1" fill-rule="nonzero"/><path fill="#224c8d" d="M 330.660156 89.847656 C 332.75 88.632812 333.464844 85.953125 332.253906 83.859375 C 331.042969 81.769531 328.363281 81.054688 326.269531 82.265625 L 302.523438 95.984375 C 300.429688 97.199219 299.71875 99.878906 300.929688 101.972656 C 302.140625 104.0625 304.816406 104.777344 306.910156 103.566406 Z M 330.660156 89.847656 " fill-opacity="1" fill-rule="nonzero"/><g clip-path="url(#acb41ca8b7)"><path fill="#224c8d" d="M 350.285156 171.933594 C 352.710938 171.933594 354.675781 169.964844 354.675781 167.542969 C 354.675781 165.117188 352.710938 163.152344 350.285156 163.152344 L 322.863281 163.152344 C 320.441406 163.152344 318.476562 165.117188 318.476562 167.542969 C 318.476562 169.964844 320.441406 171.933594 322.863281 171.933594 Z M 350.285156 171.933594 " fill-opacity="1" fill-rule="nonzero"/></g><g clip-path="url(#64e1b08dc4)"><path fill="#224c8d" d="M 24.527344 163.152344 C 22.101562 163.152344 20.136719 165.117188 20.136719 167.542969 C 20.136719 169.964844 22.101562 171.933594 24.527344 171.933594 L 51.949219 171.933594 C 54.371094 171.933594 56.335938 169.964844 56.335938 167.542969 C 56.335938 165.117188 54.371094 163.152344 51.949219 163.152344 Z M 24.527344 163.152344 " fill-opacity="1" fill-rule="nonzero"/></g><path fill="#224c8d" d="M 48.539062 82.265625 C 46.449219 81.054688 43.769531 81.769531 42.558594 83.859375 C 41.347656 85.953125 42.0625 88.632812 44.152344 89.847656 L 67.902344 103.566406 C 69.992188 104.777344 72.671875 104.0625 73.882812 101.972656 C 75.09375 99.878906 74.382812 97.199219 72.289062 95.988281 Z M 48.539062 82.265625 " fill-opacity="1" fill-rule="nonzero"/><path fill="#224c8d" d="M 109.753906 24.207031 C 108.542969 22.117188 105.863281 21.402344 103.773438 22.613281 C 101.679688 23.824219 100.96875 26.507812 102.179688 28.597656 L 115.890625 52.363281 C 117.101562 54.453125 119.78125 55.167969 121.871094 53.957031 C 123.960938 52.746094 124.675781 50.0625 123.464844 47.972656 Z M 109.753906 24.207031 " fill-opacity="1" fill-rule="nonzero"/><path fill="#224c8d" d="M 204.195312 98.609375 C 199.421875 98.609375 194.996094 100.132812 191.367188 102.71875 C 187.648438 105.375 184.777344 109.144531 183.265625 113.539062 L 183.261719 113.539062 C 183.085938 114.050781 183.007812 114.570312 183.023438 115.082031 L 183.023438 220.113281 C 183.023438 220.972656 183.269531 221.773438 183.695312 222.449219 C 185.679688 226.097656 188.609375 229.15625 192.148438 231.292969 C 195.667969 233.417969 199.792969 234.644531 204.195312 234.644531 C 208.707031 234.644531 212.945312 233.335938 216.550781 231.078125 C 219.566406 229.191406 222.121094 226.636719 224 223.625 C 229.0625 222.695312 233.558594 220.128906 236.910156 216.496094 C 240.757812 212.332031 243.109375 206.765625 243.109375 200.660156 C 243.109375 199.964844 243.070312 199.238281 243 198.492188 C 245.28125 196.621094 247.203125 194.328125 248.644531 191.726562 C 250.515625 188.355469 251.578125 184.496094 251.578125 180.410156 C 251.578125 177.582031 251.070312 174.855469 250.136719 172.328125 C 249.585938 170.832031 248.882812 169.40625 248.046875 168.070312 C 248.867188 166.742188 249.558594 165.328125 250.101562 163.847656 C 251.027344 161.328125 251.53125 158.613281 251.53125 155.800781 C 251.53125 152.773438 250.953125 149.875 249.902344 147.214844 C 249.25 145.566406 248.40625 144 247.40625 142.554688 C 248.070312 141.351562 248.632812 140.089844 249.078125 138.78125 C 249.878906 136.410156 250.316406 133.882812 250.316406 131.277344 C 250.316406 124.835938 247.703125 119 243.480469 114.773438 L 240.375 117.859375 L 243.480469 114.757812 L 243.398438 114.675781 C 239.179688 110.496094 233.375 107.914062 226.96875 107.914062 C 225.566406 107.914062 224.1875 108.039062 222.847656 108.277344 L 222.992188 109.074219 L 222.847656 108.277344 C 222.738281 108.296875 222.628906 108.324219 222.519531 108.351562 C 220.851562 105.890625 218.699219 103.785156 216.203125 102.167969 C 212.726562 99.917969 208.601562 98.609375 204.195312 98.609375 Z M 196.441406 109.855469 C 198.617188 108.304688 201.292969 107.390625 204.195312 107.390625 C 206.882812 107.390625 209.367188 108.167969 211.4375 109.507812 C 213.535156 110.863281 215.230469 112.796875 216.304688 115.089844 C 217.175781 117.308594 219.664062 118.429688 221.910156 117.597656 L 221.90625 117.589844 C 222.632812 117.324219 223.351562 117.113281 224.0625 116.96875 C 224.171875 116.957031 224.28125 116.941406 224.394531 116.921875 C 225.226562 116.773438 226.089844 116.695312 226.96875 116.695312 C 230.980469 116.695312 234.617188 118.316406 237.25 120.941406 L 237.273438 120.964844 L 237.28125 120.957031 C 239.914062 123.59375 241.542969 127.242188 241.542969 131.273438 C 241.542969 132.933594 241.273438 134.515625 240.78125 135.96875 C 240.292969 137.402344 239.59375 138.734375 238.726562 139.914062 C 237.238281 141.59375 237.25 144.160156 238.8125 145.828125 L 242.011719 142.824219 L 238.824219 145.824219 C 240.058594 147.140625 241.054688 148.703125 241.742188 150.4375 C 242.394531 152.09375 242.757812 153.902344 242.757812 155.800781 C 242.757812 157.578125 242.445312 159.273438 241.875 160.828125 C 241.304688 162.375 240.484375 163.800781 239.460938 165.046875 C 237.925781 166.660156 237.828125 169.203125 239.304688 170.929688 L 239.3125 170.921875 C 240.421875 172.214844 241.304688 173.714844 241.910156 175.347656 C 242.488281 176.914062 242.804688 178.621094 242.804688 180.410156 C 242.804688 182.992188 242.148438 185.402344 241 187.472656 C 239.835938 189.574219 238.160156 191.359375 236.140625 192.667969 C 234.480469 193.582031 233.546875 195.519531 233.980469 197.464844 L 233.996094 197.460938 C 234.085938 197.871094 234.164062 198.3125 234.222656 198.789062 L 234.246094 199.054688 L 234.253906 199.054688 C 234.304688 199.53125 234.332031 200.066406 234.332031 200.660156 C 234.332031 204.484375 232.863281 207.964844 230.464844 210.5625 C 228.089844 213.132812 224.796875 214.847656 221.109375 215.183594 C 219.535156 215.234375 218.042969 216.136719 217.304688 217.648438 L 221.25 219.570312 L 217.308594 217.667969 C 216.105469 220.144531 214.226562 222.226562 211.921875 223.671875 C 209.707031 225.058594 207.058594 225.863281 204.195312 225.863281 C 201.433594 225.863281 198.859375 225.101562 196.671875 223.78125 C 194.6875 222.582031 193.015625 220.929688 191.796875 218.96875 L 191.796875 115.75 C 192.757812 113.363281 194.382812 111.320312 196.441406 109.855469 Z M 196.441406 109.855469 " fill-opacity="1" fill-rule="nonzero"/></svg>