<svg xmlns="http://www.w3.org/2000/svg" xmlns:xlink="http://www.w3.org/1999/xlink" width="500" zoomAndPan="magnify" viewBox="0 0 375 374.999991" height="500" preserveAspectRatio="xMidYMid meet" version="1.0"><defs><clipPath id="dcc2c42c11"><path d="M 0 273 L 96 273 L 96 333.75 L 0 333.75 Z M 0 273 " clip-rule="nonzero"/></clipPath><clipPath id="bedd2677d9"><path d="M 81 273 L 178 273 L 178 333.75 L 81 333.75 Z M 81 273 " clip-rule="nonzero"/></clipPath></defs><path fill="#224c8d" d="M 7.371094 45.550781 L 88.636719 45.550781 C 92.636719 45.550781 95.949219 48.867188 95.949219 52.863281 L 95.949219 280.832031 C 95.949219 284.882812 92.636719 288.144531 88.636719 288.144531 L 7.371094 288.144531 C 3.320312 288.144531 0.0585938 284.882812 0.0585938 280.832031 L 0.0585938 52.863281 C 0.0585938 48.867188 3.320312 45.550781 7.371094 45.550781 Z M 81.324219 60.175781 L 14.679688 60.175781 L 14.679688 273.523438 L 81.324219 273.523438 Z M 81.324219 60.175781 " fill-opacity="1" fill-rule="nonzero"/><path fill="#224c8d" d="M 14.679688 45.550781 L 81.324219 45.550781 L 81.324219 30.085938 C 81.324219 25.828125 79.589844 21.933594 76.75 19.148438 C 73.960938 16.359375 70.070312 14.570312 65.808594 14.570312 L 30.144531 14.570312 C 25.886719 14.570312 22.046875 16.359375 19.203125 19.148438 C 16.417969 21.933594 14.679688 25.828125 14.679688 30.085938 Z M 88.636719 60.175781 L 7.371094 60.175781 C 3.320312 60.175781 0.0585938 56.914062 0.0585938 52.863281 L 0.0585938 30.085938 C 0.0585938 21.777344 3.425781 14.253906 8.894531 8.835938 C 14.3125 3.367188 21.835938 0 30.144531 0 L 65.808594 0 C 74.121094 0 81.640625 3.367188 87.113281 8.835938 C 92.53125 14.253906 95.949219 21.777344 95.949219 30.085938 L 95.949219 52.863281 C 95.949219 56.914062 92.636719 60.175781 88.636719 60.175781 Z M 88.636719 60.175781 " fill-opacity="1" fill-rule="nonzero"/><g clip-path="url(#dcc2c42c11)"><path fill="#224c8d" d="M 7.371094 273.523438 L 88.636719 273.523438 C 92.636719 273.523438 95.949219 276.785156 95.949219 280.832031 L 95.949219 303.609375 C 95.949219 311.921875 92.53125 319.441406 87.113281 324.914062 C 81.640625 330.332031 74.121094 333.75 65.808594 333.75 L 30.144531 333.75 C 21.835938 333.75 14.3125 330.332031 8.894531 324.914062 C 3.425781 319.441406 0.0585938 311.921875 0.0585938 303.609375 L 0.0585938 280.832031 C 0.0585938 276.785156 3.320312 273.523438 7.371094 273.523438 Z M 81.324219 288.144531 L 14.679688 288.144531 L 14.679688 303.609375 C 14.679688 307.871094 16.417969 311.761719 19.203125 314.550781 C 22.046875 317.390625 25.886719 319.128906 30.144531 319.128906 L 65.808594 319.128906 C 70.070312 319.128906 73.960938 317.390625 76.75 314.550781 C 79.589844 311.761719 81.324219 307.871094 81.324219 303.609375 Z M 81.324219 288.144531 " fill-opacity="1" fill-rule="nonzero"/></g><path fill="#224c8d" d="M 162.59375 60.175781 L 95.949219 60.175781 L 95.949219 273.523438 L 162.59375 273.523438 Z M 88.636719 45.550781 L 169.90625 45.550781 C 173.902344 45.550781 177.214844 48.867188 177.214844 52.863281 L 177.214844 280.832031 C 177.214844 284.882812 173.902344 288.144531 169.90625 288.144531 L 88.636719 288.144531 C 84.585938 288.144531 81.324219 284.882812 81.324219 280.832031 L 81.324219 52.863281 C 81.324219 48.867188 84.585938 45.550781 88.636719 45.550781 Z M 88.636719 45.550781 " fill-opacity="1" fill-rule="nonzero"/><path fill="#224c8d" d="M 169.90625 60.175781 L 88.636719 60.175781 C 84.585938 60.175781 81.324219 56.914062 81.324219 52.863281 L 81.324219 30.085938 C 81.324219 21.777344 84.691406 14.253906 90.164062 8.835938 C 95.582031 3.367188 103.15625 0 111.414062 0 L 147.078125 0 C 155.386719 0 162.910156 3.367188 168.378906 8.835938 C 173.796875 14.253906 177.214844 21.777344 177.214844 30.085938 L 177.214844 52.863281 C 177.214844 56.914062 173.902344 60.175781 169.90625 60.175781 Z M 95.949219 45.550781 L 162.59375 45.550781 L 162.59375 30.085938 C 162.59375 25.828125 160.859375 21.933594 158.015625 19.148438 C 155.230469 16.359375 151.335938 14.570312 147.078125 14.570312 L 111.414062 14.570312 C 107.152344 14.570312 103.3125 16.359375 100.472656 19.148438 C 97.683594 21.933594 95.949219 25.828125 95.949219 30.085938 Z M 95.949219 45.550781 " fill-opacity="1" fill-rule="nonzero"/><g clip-path="url(#bedd2677d9)"><path fill="#224c8d" d="M 162.59375 288.144531 L 95.949219 288.144531 L 95.949219 303.609375 C 95.949219 307.871094 97.683594 311.761719 100.472656 314.550781 C 103.3125 317.390625 107.152344 319.128906 111.414062 319.128906 L 147.078125 319.128906 C 151.335938 319.128906 155.230469 317.390625 158.015625 314.550781 C 160.859375 311.761719 162.59375 307.871094 162.59375 303.609375 Z M 88.636719 273.523438 L 169.90625 273.523438 C 173.902344 273.523438 177.214844 276.785156 177.214844 280.832031 L 177.214844 303.609375 C 177.214844 311.921875 173.796875 319.441406 168.378906 324.914062 C 162.910156 330.332031 155.386719 333.75 147.078125 333.75 L 111.414062 333.75 C 103.15625 333.75 95.582031 330.332031 90.164062 324.914062 C 84.691406 319.441406 81.324219 311.921875 81.324219 303.609375 L 81.324219 280.832031 C 81.324219 276.785156 84.585938 273.523438 88.636719 273.523438 Z M 88.636719 273.523438 " fill-opacity="1" fill-rule="nonzero"/></g><path fill="#224c8d" d="M 179.375 76.113281 L 252.066406 40.921875 C 255.695312 39.132812 260.0625 40.660156 261.796875 44.289062 C 261.902344 44.449219 261.957031 44.605469 262.007812 44.761719 L 361.160156 249.484375 L 361.160156 249.429688 C 362.894531 253.0625 361.421875 257.480469 357.792969 259.214844 C 357.636719 259.269531 357.476562 259.371094 357.320312 259.425781 L 284.625 294.613281 C 280.996094 296.402344 276.632812 294.878906 274.84375 291.25 C 274.789062 291.089844 274.738281 290.933594 274.683594 290.773438 L 175.535156 86.054688 L 175.535156 86.105469 C 173.746094 82.425781 175.269531 78.058594 178.898438 76.324219 C 179.058594 76.269531 179.214844 76.164062 179.375 76.113281 Z M 251.855469 57.230469 L 191.839844 86.265625 L 284.835938 278.308594 L 344.855469 249.273438 Z M 251.855469 57.230469 " fill-opacity="1" fill-rule="nonzero"/><path fill="#224c8d" d="M 185.476562 73.167969 L 245.492188 44.078125 L 238.757812 30.140625 L 238.707031 30.140625 C 238.652344 30.035156 238.601562 29.878906 238.546875 29.773438 C 236.65625 26.140625 233.5 23.511719 229.871094 22.25 C 226.082031 20.988281 221.875 21.09375 218.035156 22.933594 C 217.875 23.039062 217.71875 23.089844 217.5625 23.144531 L 185.894531 38.503906 C 182.054688 40.34375 179.320312 43.605469 178.058594 47.394531 C 176.742188 51.128906 176.847656 55.386719 178.6875 59.226562 Z M 255.222656 47.5 L 258.378906 54.019531 L 185.738281 89.261719 C 185.578125 89.316406 185.421875 89.421875 185.265625 89.472656 C 181.636719 91.210938 177.269531 89.738281 175.535156 86.105469 L 182.109375 82.898438 L 175.535156 86.054688 L 165.59375 65.539062 C 161.960938 58.125 161.753906 49.867188 164.277344 42.554688 C 166.800781 35.292969 172.113281 28.984375 179.582031 25.351562 L 211.195312 10.046875 C 211.511719 9.835938 211.878906 9.679688 212.195312 9.574219 C 219.507812 6.207031 227.554688 6.050781 234.65625 8.519531 C 241.757812 10.992188 247.910156 16.097656 251.59375 23.25 C 251.75 23.566406 251.960938 23.878906 252.066406 24.25 L 261.585938 43.867188 C 261.640625 43.972656 261.746094 44.132812 261.796875 44.289062 C 263.585938 47.917969 262.0625 52.285156 258.433594 54.074219 Z M 255.222656 47.5 " fill-opacity="1" fill-rule="nonzero"/><path fill="#224c8d" d="M 278.734375 281.253906 L 351.429688 246.066406 L 351.375 246.066406 C 355.007812 244.328125 359.425781 245.800781 361.160156 249.429688 C 361.214844 249.589844 361.316406 249.746094 361.371094 249.90625 L 371.101562 270 C 374.679688 277.414062 374.941406 285.671875 372.363281 292.933594 C 369.839844 300.242188 364.578125 306.554688 357.109375 310.183594 L 324.972656 325.703125 C 317.554688 329.332031 309.296875 329.542969 302.039062 327.015625 C 294.726562 324.492188 288.414062 319.179688 284.835938 311.761719 L 274.894531 291.25 L 274.84375 291.25 C 273.105469 287.621094 274.632812 283.253906 278.261719 281.464844 C 278.417969 281.414062 278.578125 281.359375 278.734375 281.253906 Z M 351.21875 262.371094 L 291.203125 291.460938 L 297.933594 305.398438 C 299.777344 309.238281 303.035156 311.972656 306.824219 313.289062 C 310.558594 314.550781 314.820312 314.445312 318.660156 312.605469 L 350.796875 297.035156 C 354.585938 295.195312 357.320312 291.933594 358.636719 288.144531 C 359.949219 284.410156 359.792969 280.148438 357.953125 276.308594 Z M 351.21875 262.371094 " fill-opacity="1" fill-rule="nonzero"/></svg>