<svg xmlns="http://www.w3.org/2000/svg" xmlns:xlink="http://www.w3.org/1999/xlink" width="500" zoomAndPan="magnify" viewBox="0 0 375 374.999991" height="500" preserveAspectRatio="xMidYMid meet" version="1.0"><path fill="#224c8d" d="M 175.78125 281.25 C 175.78125 281.632812 175.742188 282.015625 175.667969 282.394531 C 175.59375 282.769531 175.484375 283.136719 175.335938 283.492188 C 175.1875 283.847656 175.007812 284.183594 174.792969 284.503906 C 174.578125 284.824219 174.335938 285.121094 174.066406 285.394531 C 173.792969 285.664062 173.496094 285.90625 173.175781 286.121094 C 172.855469 286.335938 172.519531 286.515625 172.164062 286.664062 C 171.808594 286.808594 171.441406 286.921875 171.066406 286.996094 C 170.6875 287.070312 170.304688 287.109375 169.921875 287.109375 C 169.539062 287.109375 169.15625 287.070312 168.777344 286.996094 C 168.402344 286.921875 168.035156 286.808594 167.679688 286.664062 C 167.324219 286.515625 166.988281 286.335938 166.667969 286.121094 C 166.347656 285.90625 166.050781 285.664062 165.777344 285.394531 C 165.507812 285.121094 165.265625 284.824219 165.050781 284.503906 C 164.835938 284.183594 164.65625 283.847656 164.507812 283.492188 C 164.359375 283.136719 164.25 282.769531 164.175781 282.394531 C 164.101562 282.015625 164.0625 281.632812 164.0625 281.25 C 164.0625 280.867188 164.101562 280.484375 164.175781 280.105469 C 164.25 279.730469 164.359375 279.363281 164.507812 279.007812 C 164.65625 278.652344 164.835938 278.316406 165.050781 277.996094 C 165.265625 277.675781 165.507812 277.378906 165.777344 277.105469 C 166.050781 276.835938 166.347656 276.59375 166.667969 276.378906 C 166.988281 276.164062 167.324219 275.984375 167.679688 275.835938 C 168.035156 275.6875 168.402344 275.578125 168.777344 275.503906 C 169.15625 275.429688 169.539062 275.390625 169.921875 275.390625 C 170.304688 275.390625 170.6875 275.429688 171.066406 275.503906 C 171.441406 275.578125 171.808594 275.6875 172.164062 275.835938 C 172.519531 275.984375 172.855469 276.164062 173.175781 276.378906 C 173.496094 276.589844 173.792969 276.835938 174.066406 277.105469 C 174.335938 277.378906 174.578125 277.675781 174.792969 277.996094 C 175.007812 278.316406 175.1875 278.652344 175.335938 279.007812 C 175.484375 279.363281 175.59375 279.730469 175.667969 280.105469 C 175.742188 280.484375 175.78125 280.867188 175.78125 281.25 Z M 175.78125 281.25 " fill-opacity="1" fill-rule="nonzero"/><path fill="#224c8d" d="M 52.734375 140.625 C 52.734375 137.402344 50.097656 134.765625 46.875 134.765625 L 29.296875 134.765625 C 26.074219 134.765625 23.4375 137.402344 23.4375 140.625 L 23.4375 158.203125 C 23.4375 161.425781 26.074219 164.0625 29.296875 164.0625 L 46.875 164.0625 C 50.097656 164.0625 52.734375 161.425781 52.734375 158.203125 Z M 41.015625 152.34375 L 35.15625 152.34375 L 35.15625 146.484375 L 41.015625 146.484375 Z M 41.015625 152.34375 " fill-opacity="1" fill-rule="nonzero"/><path fill="#224c8d" d="M 52.734375 99.609375 C 52.734375 96.386719 50.097656 93.75 46.875 93.75 L 29.296875 93.75 C 26.074219 93.75 23.4375 96.386719 23.4375 99.609375 L 23.4375 117.1875 C 23.4375 120.410156 26.074219 123.046875 29.296875 123.046875 L 46.875 123.046875 C 50.097656 123.046875 52.734375 120.410156 52.734375 117.1875 Z M 41.015625 111.328125 L 35.15625 111.328125 L 35.15625 105.46875 L 41.015625 105.46875 Z M 41.015625 111.328125 " fill-opacity="1" fill-rule="nonzero"/><path fill="#224c8d" d="M 52.734375 181.640625 C 52.734375 178.417969 50.097656 175.78125 46.875 175.78125 L 29.296875 175.78125 C 26.074219 175.78125 23.4375 178.417969 23.4375 181.640625 L 23.4375 199.21875 C 23.4375 202.441406 26.074219 205.078125 29.296875 205.078125 L 46.875 205.078125 C 50.097656 205.078125 52.734375 202.441406 52.734375 199.21875 Z M 41.015625 193.359375 L 35.15625 193.359375 L 35.15625 187.5 L 41.015625 187.5 Z M 41.015625 193.359375 " fill-opacity="1" fill-rule="nonzero"/><path fill="#224c8d" d="M 46.875 216.796875 L 29.296875 216.796875 C 26.074219 216.796875 23.4375 219.433594 23.4375 222.65625 L 23.4375 240.234375 C 23.4375 243.457031 26.074219 246.09375 29.296875 246.09375 L 46.875 246.09375 C 50.097656 246.09375 52.734375 243.457031 52.734375 240.234375 L 52.734375 222.65625 C 52.734375 219.433594 50.097656 216.796875 46.875 216.796875 Z M 41.015625 234.375 L 35.15625 234.375 L 35.15625 228.515625 L 41.015625 228.515625 Z M 41.015625 234.375 " fill-opacity="1" fill-rule="nonzero"/><path fill="#224c8d" d="M 96.679688 140.625 C 96.679688 137.402344 94.042969 134.765625 90.820312 134.765625 L 73.242188 134.765625 C 70.019531 134.765625 67.382812 137.402344 67.382812 140.625 L 67.382812 158.203125 C 67.382812 161.425781 70.019531 164.0625 73.242188 164.0625 L 90.820312 164.0625 C 94.042969 164.0625 96.679688 161.425781 96.679688 158.203125 Z M 84.960938 152.34375 L 79.101562 152.34375 L 79.101562 146.484375 L 84.960938 146.484375 Z M 84.960938 152.34375 " fill-opacity="1" fill-rule="nonzero"/><path fill="#224c8d" d="M 96.679688 99.609375 C 96.679688 96.386719 94.042969 93.75 90.820312 93.75 L 73.242188 93.75 C 70.019531 93.75 67.382812 96.386719 67.382812 99.609375 L 67.382812 117.1875 C 67.382812 120.410156 70.019531 123.046875 73.242188 123.046875 L 90.820312 123.046875 C 94.042969 123.046875 96.679688 120.410156 96.679688 117.1875 Z M 84.960938 111.328125 L 79.101562 111.328125 L 79.101562 105.46875 L 84.960938 105.46875 Z M 84.960938 111.328125 " fill-opacity="1" fill-rule="nonzero"/><path fill="#224c8d" d="M 90.820312 175.78125 L 73.242188 175.78125 C 70.019531 175.78125 67.382812 178.417969 67.382812 181.640625 L 67.382812 199.21875 C 67.382812 202.441406 70.019531 205.078125 73.242188 205.078125 L 90.820312 205.078125 C 94.042969 205.078125 96.679688 202.441406 96.679688 199.21875 L 96.679688 181.640625 C 96.679688 178.417969 94.042969 175.78125 90.820312 175.78125 Z M 84.960938 193.359375 L 79.101562 193.359375 L 79.101562 187.5 L 84.960938 187.5 Z M 84.960938 193.359375 " fill-opacity="1" fill-rule="nonzero"/><path fill="#224c8d" d="M 169.921875 137.695312 C 169.921875 138.082031 169.847656 138.457031 169.699219 138.816406 C 169.550781 139.175781 169.339844 139.492188 169.0625 139.765625 C 168.789062 140.042969 168.472656 140.253906 168.113281 140.402344 C 167.753906 140.550781 167.378906 140.625 166.992188 140.625 C 166.605469 140.625 166.230469 140.550781 165.871094 140.402344 C 165.511719 140.253906 165.195312 140.042969 164.921875 139.765625 C 164.644531 139.492188 164.433594 139.175781 164.285156 138.816406 C 164.136719 138.457031 164.0625 138.082031 164.0625 137.695312 C 164.0625 137.308594 164.136719 136.933594 164.285156 136.574219 C 164.433594 136.214844 164.644531 135.898438 164.921875 135.625 C 165.195312 135.347656 165.511719 135.136719 165.871094 134.988281 C 166.230469 134.839844 166.605469 134.765625 166.992188 134.765625 C 167.378906 134.765625 167.753906 134.839844 168.113281 134.988281 C 168.472656 135.136719 168.789062 135.347656 169.0625 135.625 C 169.339844 135.898438 169.550781 136.214844 169.699219 136.574219 C 169.847656 136.933594 169.921875 137.308594 169.921875 137.695312 Z M 169.921875 137.695312 " fill-opacity="1" fill-rule="nonzero"/><path fill="#224c8d" d="M 155.273438 137.695312 C 155.273438 138.082031 155.199219 138.457031 155.050781 138.816406 C 154.902344 139.175781 154.691406 139.492188 154.414062 139.765625 C 154.140625 140.042969 153.824219 140.253906 153.464844 140.402344 C 153.105469 140.550781 152.730469 140.625 152.34375 140.625 C 151.957031 140.625 151.582031 140.550781 151.222656 140.402344 C 150.863281 140.253906 150.546875 140.042969 150.273438 139.765625 C 149.996094 139.492188 149.785156 139.175781 149.636719 138.816406 C 149.488281 138.457031 149.414062 138.082031 149.414062 137.695312 C 149.414062 137.308594 149.488281 136.933594 149.636719 136.574219 C 149.785156 136.214844 149.996094 135.898438 150.273438 135.625 C 150.546875 135.347656 150.863281 135.136719 151.222656 134.988281 C 151.582031 134.839844 151.957031 134.765625 152.34375 134.765625 C 152.730469 134.765625 153.105469 134.839844 153.464844 134.988281 C 153.824219 135.136719 154.140625 135.347656 154.414062 135.625 C 154.691406 135.898438 154.902344 136.214844 155.050781 136.574219 C 155.199219 136.933594 155.273438 137.308594 155.273438 137.695312 Z M 155.273438 137.695312 " fill-opacity="1" fill-rule="nonzero"/><path fill="#224c8d" d="M 169.921875 117.1875 L 140.625 117.1875 C 134.179688 117.1875 128.90625 122.460938 128.90625 128.90625 L 128.90625 228.515625 C 128.90625 234.960938 134.179688 240.234375 140.625 240.234375 L 257.8125 240.234375 C 264.257812 240.234375 269.53125 234.960938 269.53125 228.515625 L 269.53125 187.5 L 257.8125 187.5 L 257.8125 228.515625 L 140.625 228.515625 L 140.625 158.203125 L 169.921875 158.203125 L 169.921875 146.484375 L 140.625 146.484375 L 140.625 128.90625 L 169.921875 128.90625 Z M 169.921875 117.1875 " fill-opacity="1" fill-rule="nonzero"/><path fill="#224c8d" d="M 222.65625 73.242188 C 222.65625 73.628906 222.582031 74.003906 222.433594 74.363281 C 222.285156 74.722656 222.074219 75.039062 221.796875 75.3125 C 221.523438 75.589844 221.207031 75.800781 220.847656 75.949219 C 220.488281 76.097656 220.113281 76.171875 219.726562 76.171875 C 219.339844 76.171875 218.964844 76.097656 218.605469 75.949219 C 218.246094 75.800781 217.929688 75.589844 217.65625 75.3125 C 217.378906 75.039062 217.167969 74.722656 217.019531 74.363281 C 216.871094 74.003906 216.796875 73.628906 216.796875 73.242188 C 216.796875 72.855469 216.871094 72.480469 217.019531 72.121094 C 217.167969 71.761719 217.378906 71.445312 217.65625 71.171875 C 217.929688 70.894531 218.246094 70.683594 218.605469 70.535156 C 218.964844 70.386719 219.339844 70.3125 219.726562 70.3125 C 220.113281 70.3125 220.488281 70.386719 220.847656 70.535156 C 221.207031 70.683594 221.523438 70.894531 221.796875 71.171875 C 222.074219 71.445312 222.285156 71.761719 222.433594 72.121094 C 222.582031 72.480469 222.65625 72.855469 222.65625 73.242188 Z M 222.65625 73.242188 " fill-opacity="1" fill-rule="nonzero"/><path fill="#224c8d" d="M 208.007812 73.242188 C 208.007812 73.628906 207.933594 74.003906 207.785156 74.363281 C 207.636719 74.722656 207.425781 75.039062 207.148438 75.3125 C 206.875 75.589844 206.558594 75.800781 206.199219 75.949219 C 205.839844 76.097656 205.464844 76.171875 205.078125 76.171875 C 204.691406 76.171875 204.316406 76.097656 203.957031 75.949219 C 203.597656 75.800781 203.28125 75.589844 203.007812 75.3125 C 202.730469 75.039062 202.519531 74.722656 202.371094 74.363281 C 202.222656 74.003906 202.148438 73.628906 202.148438 73.242188 C 202.148438 72.855469 202.222656 72.480469 202.371094 72.121094 C 202.519531 71.761719 202.730469 71.445312 203.007812 71.171875 C 203.28125 70.894531 203.597656 70.683594 203.957031 70.535156 C 204.316406 70.386719 204.691406 70.3125 205.078125 70.3125 C 205.464844 70.3125 205.839844 70.386719 206.199219 70.535156 C 206.558594 70.683594 206.875 70.894531 207.148438 71.171875 C 207.425781 71.445312 207.636719 71.761719 207.785156 72.121094 C 207.933594 72.480469 208.007812 72.855469 208.007812 73.242188 Z M 208.007812 73.242188 " fill-opacity="1" fill-rule="nonzero"/><path fill="#224c8d" d="M 322.265625 164.0625 L 322.265625 134.765625 L 310.546875 134.765625 L 310.546875 164.0625 L 193.359375 164.0625 L 193.359375 93.75 L 222.65625 93.75 L 222.65625 82.03125 L 193.359375 82.03125 L 193.359375 64.453125 L 222.65625 64.453125 L 222.65625 52.734375 L 193.359375 52.734375 C 186.914062 52.734375 181.640625 58.007812 181.640625 64.453125 L 181.640625 164.0625 C 181.640625 170.507812 186.914062 175.78125 193.359375 175.78125 L 310.546875 175.78125 C 316.992188 175.78125 322.265625 170.507812 322.265625 164.0625 Z M 322.265625 164.0625 " fill-opacity="1" fill-rule="nonzero"/><path fill="#224c8d" d="M 375 111.328125 L 375 11.71875 C 375 5.273438 369.726562 0 363.28125 0 L 246.09375 0 C 239.648438 0 234.375 5.273438 234.375 11.71875 L 234.375 111.328125 C 234.375 117.773438 239.648438 123.046875 246.09375 123.046875 L 363.28125 123.046875 C 369.726562 123.046875 375 117.773438 375 111.328125 Z M 363.28125 11.71875 L 363.28125 29.296875 L 246.09375 29.296875 L 246.09375 11.71875 Z M 246.09375 41.015625 L 363.28125 41.015625 L 363.28125 111.328125 L 246.09375 111.328125 Z M 246.09375 41.015625 " fill-opacity="1" fill-rule="nonzero"/><path fill="#224c8d" d="M 290.039062 20.507812 C 290.039062 20.894531 289.964844 21.269531 289.816406 21.628906 C 289.667969 21.988281 289.457031 22.304688 289.179688 22.578125 C 288.90625 22.855469 288.589844 23.066406 288.230469 23.214844 C 287.871094 23.363281 287.496094 23.4375 287.109375 23.4375 C 286.722656 23.4375 286.347656 23.363281 285.988281 23.214844 C 285.628906 23.066406 285.3125 22.855469 285.039062 22.578125 C 284.761719 22.304688 284.550781 21.988281 284.402344 21.628906 C 284.253906 21.269531 284.179688 20.894531 284.179688 20.507812 C 284.179688 20.121094 284.253906 19.746094 284.402344 19.386719 C 284.550781 19.027344 284.761719 18.710938 285.039062 18.4375 C 285.3125 18.160156 285.628906 17.949219 285.988281 17.800781 C 286.347656 17.652344 286.722656 17.578125 287.109375 17.578125 C 287.496094 17.578125 287.871094 17.652344 288.230469 17.800781 C 288.589844 17.949219 288.90625 18.160156 289.179688 18.4375 C 289.457031 18.710938 289.667969 19.027344 289.816406 19.386719 C 289.964844 19.746094 290.039062 20.121094 290.039062 20.507812 Z M 290.039062 20.507812 " fill-opacity="1" fill-rule="nonzero"/><path fill="#224c8d" d="M 275.390625 20.507812 C 275.390625 20.894531 275.316406 21.269531 275.167969 21.628906 C 275.019531 21.988281 274.808594 22.304688 274.53125 22.578125 C 274.257812 22.855469 273.941406 23.066406 273.582031 23.214844 C 273.222656 23.363281 272.847656 23.4375 272.460938 23.4375 C 272.074219 23.4375 271.699219 23.363281 271.339844 23.214844 C 270.980469 23.066406 270.664062 22.855469 270.390625 22.578125 C 270.113281 22.304688 269.902344 21.988281 269.753906 21.628906 C 269.605469 21.269531 269.53125 20.894531 269.53125 20.507812 C 269.53125 20.121094 269.605469 19.746094 269.753906 19.386719 C 269.902344 19.027344 270.113281 18.710938 270.390625 18.4375 C 270.664062 18.160156 270.980469 17.949219 271.339844 17.800781 C 271.699219 17.652344 272.074219 17.578125 272.460938 17.578125 C 272.847656 17.578125 273.222656 17.652344 273.582031 17.800781 C 273.941406 17.949219 274.257812 18.160156 274.53125 18.4375 C 274.808594 18.710938 275.019531 19.027344 275.167969 19.386719 C 275.316406 19.746094 275.390625 20.121094 275.390625 20.507812 Z M 275.390625 20.507812 " fill-opacity="1" fill-rule="nonzero"/><path fill="#224c8d" d="M 260.742188 20.507812 C 260.742188 20.894531 260.667969 21.269531 260.519531 21.628906 C 260.371094 21.988281 260.160156 22.304688 259.882812 22.578125 C 259.609375 22.855469 259.292969 23.066406 258.933594 23.214844 C 258.574219 23.363281 258.199219 23.4375 257.8125 23.4375 C 257.425781 23.4375 257.050781 23.363281 256.691406 23.214844 C 256.332031 23.066406 256.015625 22.855469 255.742188 22.578125 C 255.464844 22.304688 255.253906 21.988281 255.105469 21.628906 C 254.957031 21.269531 254.882812 20.894531 254.882812 20.507812 C 254.882812 20.121094 254.957031 19.746094 255.105469 19.386719 C 255.253906 19.027344 255.464844 18.710938 255.742188 18.4375 C 256.015625 18.160156 256.332031 17.949219 256.691406 17.800781 C 257.050781 17.652344 257.425781 17.578125 257.8125 17.578125 C 258.199219 17.578125 258.574219 17.652344 258.933594 17.800781 C 259.292969 17.949219 259.609375 18.160156 259.882812 18.4375 C 260.160156 18.710938 260.371094 19.027344 260.519531 19.386719 C 260.667969 19.746094 260.742188 20.121094 260.742188 20.507812 Z M 260.742188 20.507812 " fill-opacity="1" fill-rule="nonzero"/><path fill="#224c8d" d="M 11.71875 304.6875 L 141.503906 304.6875 L 136.523438 322.265625 L 115.429688 322.265625 C 110.742188 322.265625 106.347656 324.902344 104.589844 329.296875 L 91.699219 358.886719 C 90.234375 362.402344 90.527344 366.503906 92.578125 369.726562 C 94.628906 372.949219 98.4375 375 102.539062 375 L 237.304688 375 C 241.40625 375 244.921875 372.949219 247.265625 369.726562 C 249.316406 366.503906 249.609375 362.402344 248.144531 358.886719 L 235.253906 329.296875 C 233.496094 324.902344 229.101562 322.265625 224.414062 322.265625 L 203.320312 322.265625 L 198.339844 304.6875 L 328.125 304.6875 C 334.570312 304.6875 339.84375 299.414062 339.84375 292.96875 L 339.84375 134.765625 L 333.984375 134.765625 L 333.984375 164.0625 C 333.984375 169.921875 331.640625 175.488281 328.125 179.589844 L 328.125 257.8125 L 11.71875 257.8125 L 11.71875 82.03125 L 169.921875 82.03125 L 169.921875 70.3125 L 11.71875 70.3125 C 5.273438 70.3125 0 75.585938 0 82.03125 L 0 292.96875 C 0 299.414062 5.273438 304.6875 11.71875 304.6875 Z M 196.582031 341.308594 C 197.460938 343.945312 199.804688 345.703125 202.148438 345.703125 C 202.734375 345.703125 203.320312 345.703125 203.90625 345.410156 C 207.128906 344.53125 208.886719 341.308594 208.007812 338.085938 L 206.835938 333.691406 L 224.707031 333.691406 L 237.304688 362.988281 L 102.539062 363.28125 L 115.429688 333.984375 L 133.300781 333.984375 L 132.128906 338.378906 C 131.25 341.601562 133.007812 344.824219 136.230469 345.703125 C 139.453125 346.582031 142.675781 344.824219 143.554688 341.601562 L 154.101562 304.980469 L 186.328125 304.980469 Z M 328.125 269.53125 L 328.125 292.96875 L 11.71875 292.96875 L 11.71875 269.53125 Z M 328.125 269.53125 " fill-opacity="1" fill-rule="nonzero"/></svg>